<?xml version="1.0" standalone="no"?>
<!DOCTYPE svg PUBLIC "-//W3C//DTD SVG 20010904//EN"
 "http://www.w3.org/TR/2001/REC-SVG-20010904/DTD/svg10.dtd">
<svg version="1.0" xmlns="http://www.w3.org/2000/svg"
 width="5152.000000pt" height="3024.000000pt" viewBox="0 0 5152.000000 3024.000000"
 preserveAspectRatio="xMidYMid meet">

<g transform="translate(0.000000,3024.000000) scale(0.100000,-0.100000)"
fill="#000000" stroke="none">
<path d="M31054 27076 c-11 -8 -49 -16 -84 -19 -92 -7 -193 -26 -204 -37 -6
-6 -26 -10 -45 -10 -20 0 -45 -7 -55 -15 -11 -8 -29 -12 -43 -9 -14 4 -33 0
-48 -10 -13 -9 -40 -16 -59 -16 -19 0 -38 -4 -41 -10 -3 -5 -14 -10 -23 -10
-9 0 -30 -7 -46 -15 -15 -8 -38 -15 -50 -15 -11 0 -30 -7 -40 -15 -11 -8 -27
-15 -36 -15 -9 0 -34 -9 -56 -19 -22 -11 -54 -23 -70 -27 -16 -4 -58 -22 -94
-41 -36 -18 -74 -33 -85 -34 -11 0 -33 -9 -50 -20 -16 -10 -37 -22 -45 -25
-20 -8 -159 -77 -185 -92 -11 -6 -72 -36 -135 -67 -63 -31 -124 -64 -135 -74
-11 -10 -55 -35 -97 -55 -42 -20 -79 -40 -82 -45 -3 -5 -29 -21 -58 -36 -29
-15 -62 -35 -73 -44 -11 -10 -41 -27 -67 -39 -25 -12 -49 -26 -52 -31 -3 -5
-29 -21 -58 -36 -29 -15 -58 -33 -63 -40 -6 -7 -32 -22 -59 -35 -27 -12 -56
-29 -64 -36 -8 -8 -32 -24 -53 -35 -21 -10 -39 -23 -39 -28 0 -5 -12 -14 -27
-20 -16 -6 -48 -26 -73 -45 -25 -19 -67 -46 -95 -60 -27 -13 -63 -38 -79 -55
-17 -17 -35 -31 -42 -31 -7 0 -26 -11 -42 -25 -16 -13 -52 -36 -80 -50 -27
-14 -52 -32 -56 -40 -3 -8 -13 -15 -22 -15 -9 0 -28 -9 -42 -21 -51 -39 -97
-68 -147 -93 -27 -14 -58 -34 -67 -46 -10 -11 -24 -20 -31 -20 -8 0 -22 -9
-32 -20 -10 -11 -24 -20 -31 -20 -7 0 -25 -10 -41 -23 -15 -12 -48 -33 -73
-46 -25 -13 -54 -31 -65 -41 -11 -9 -49 -31 -85 -49 -36 -18 -74 -40 -85 -50
-11 -9 -38 -25 -60 -35 -22 -10 -49 -23 -60 -29 -11 -6 -56 -28 -100 -50 -44
-21 -89 -44 -100 -50 -72 -38 -177 -87 -187 -87 -7 0 -35 -10 -63 -24 -63 -30
-114 -46 -146 -46 -14 0 -34 -7 -45 -15 -10 -8 -31 -15 -45 -15 -14 0 -36 -11
-49 -25 -13 -14 -35 -25 -50 -25 -14 0 -31 -5 -38 -12 -6 -6 -26 -11 -44 -10
-18 0 -43 -6 -55 -14 -12 -7 -37 -14 -55 -14 -18 0 -41 -7 -50 -14 -13 -9 -47
-12 -120 -10 -77 2 -109 -1 -125 -11 -18 -12 -80 -15 -347 -15 -206 0 -327 -4
-331 -10 -8 -13 -118 -13 -130 -1 -6 6 -34 12 -63 14 -29 2 -58 9 -65 16 -6 6
-30 11 -53 11 -24 0 -45 4 -48 9 -3 4 -28 11 -56 15 -27 4 -50 11 -50 16 0 6
-11 10 -25 10 -14 0 -25 5 -25 10 0 6 -8 10 -17 10 -10 0 -31 7 -47 15 -15 8
-39 15 -52 15 -12 0 -26 5 -29 10 -9 15 -73 40 -101 40 -12 0 -25 4 -29 9 -8
14 -65 41 -84 41 -23 0 -226 104 -253 130 -12 11 -30 20 -39 20 -10 0 -21 5
-24 10 -3 6 -25 19 -48 29 -23 11 -52 29 -64 40 -13 12 -36 21 -53 21 -18 0
-33 6 -36 15 -4 8 -14 15 -24 15 -11 0 -22 5 -25 10 -3 6 -14 10 -24 10 -10 0
-27 11 -37 25 -10 14 -26 25 -35 25 -9 0 -22 7 -29 15 -7 8 -19 15 -28 15 -8
0 -25 11 -38 25 -13 14 -32 25 -43 25 -10 0 -21 5 -23 11 -2 5 -10 11 -19 12
-8 2 -26 13 -39 25 -13 12 -30 22 -37 22 -8 0 -16 6 -19 14 -3 7 -22 22 -42
32 -20 11 -48 29 -62 42 -13 12 -28 22 -33 22 -4 0 -20 11 -35 25 -15 14 -34
23 -43 20 -10 -3 -19 1 -23 10 -3 8 -11 15 -19 15 -7 0 -24 11 -37 25 -13 14
-30 25 -37 25 -8 0 -24 11 -37 25 -13 14 -30 25 -37 25 -8 0 -25 12 -38 25
-13 14 -31 25 -40 25 -9 0 -27 12 -40 25 -13 14 -29 25 -35 25 -7 0 -23 11
-36 25 -13 14 -31 25 -39 25 -9 0 -27 12 -40 25 -13 14 -29 25 -35 25 -7 0
-23 11 -36 25 -13 14 -29 25 -36 25 -18 0 -73 32 -100 58 -13 12 -30 22 -38
22 -8 0 -23 11 -34 25 -11 14 -29 25 -41 25 -12 0 -21 5 -21 10 0 6 -8 10 -18
10 -10 0 -29 11 -42 25 -13 14 -29 25 -36 25 -6 0 -17 7 -24 15 -7 8 -20 15
-30 15 -9 0 -25 9 -35 20 -19 21 -71 50 -89 50 -6 0 -20 9 -29 21 -10 11 -31
25 -47 31 -17 5 -30 14 -30 19 0 5 -11 9 -25 9 -14 0 -25 5 -25 10 0 6 -9 10
-20 10 -10 0 -24 9 -30 20 -11 20 -82 60 -107 60 -7 0 -13 4 -13 8 0 5 -19 16
-42 26 -89 37 -108 47 -108 56 0 6 -10 10 -22 11 -13 0 -36 9 -53 20 -16 10
-37 21 -45 25 -36 14 -68 31 -111 56 -26 16 -53 26 -62 23 -8 -4 -21 1 -30 9
-9 9 -20 16 -25 16 -14 0 -76 33 -80 43 -2 4 -19 7 -38 7 -19 0 -34 4 -34 8 0
5 -19 16 -42 26 -24 9 -50 21 -58 25 -9 5 -30 12 -48 15 -17 4 -34 12 -37 17
-4 5 -19 9 -35 9 -16 0 -32 5 -35 10 -3 6 -21 10 -39 10 -18 0 -41 7 -52 15
-10 8 -31 15 -46 15 -15 0 -30 5 -33 10 -3 6 -21 10 -38 10 -18 0 -45 7 -61
15 -15 8 -48 15 -72 15 -25 0 -55 6 -67 14 -12 8 -39 13 -60 12 -20 -2 -45 3
-55 10 -11 9 -48 13 -103 14 -47 0 -89 4 -95 9 -14 15 -383 16 -397 2 -7 -7
-51 -11 -112 -11 -63 0 -105 -4 -113 -12 -6 -6 -48 -13 -94 -15 -45 -2 -87 -8
-92 -13 -6 -6 -31 -10 -57 -10 -26 0 -50 -4 -54 -10 -3 -5 -33 -12 -66 -16
-32 -4 -62 -11 -65 -15 -3 -5 -22 -9 -43 -9 -21 0 -52 -7 -69 -16 -18 -8 -40
-13 -50 -10 -10 4 -27 -1 -38 -9 -10 -8 -29 -15 -41 -15 -12 0 -25 -4 -28 -10
-3 -5 -28 -12 -56 -16 -27 -4 -52 -11 -55 -15 -3 -5 -12 -9 -20 -9 -9 0 -22
-7 -30 -15 -9 -8 -33 -15 -54 -15 -21 0 -42 -4 -45 -10 -3 -5 -15 -10 -26 -10
-10 0 -19 -4 -19 -10 0 -5 -8 -10 -17 -10 -10 0 -31 -7 -47 -15 -15 -8 -41
-15 -57 -15 -15 0 -30 -4 -34 -9 -8 -14 -65 -41 -85 -41 -20 0 -137 -57 -145
-71 -4 -5 -17 -9 -30 -9 -13 0 -54 -16 -92 -35 -37 -19 -73 -35 -79 -35 -6 0
-21 -11 -34 -25 -13 -14 -31 -25 -41 -25 -9 0 -19 -7 -23 -15 -3 -8 -14 -15
-25 -15 -11 0 -23 -4 -26 -10 -3 -5 -15 -10 -26 -10 -10 0 -19 -4 -19 -8 0 -5
-18 -16 -40 -26 -22 -10 -40 -21 -40 -26 0 -5 -24 -20 -53 -34 -29 -13 -59
-31 -66 -40 -7 -9 -19 -16 -25 -16 -7 0 -23 -11 -36 -25 -13 -14 -31 -25 -41
-25 -10 0 -26 -11 -37 -25 -11 -14 -24 -25 -30 -25 -5 0 -12 -7 -16 -15 -3 -8
-12 -15 -21 -15 -8 0 -42 -27 -74 -60 -32 -33 -64 -60 -69 -60 -17 0 -120 -99
-144 -139 -12 -20 -41 -54 -64 -77 -23 -22 -49 -57 -59 -77 -9 -21 -21 -37
-26 -37 -5 0 -9 -9 -9 -20 0 -10 -6 -23 -14 -27 -21 -12 -66 -99 -66 -127 0
-14 -4 -26 -10 -26 -5 0 -10 -17 -10 -38 0 -21 -7 -47 -15 -58 -21 -28 -21
-177 1 -195 11 -9 14 -22 10 -44 -4 -20 -1 -38 9 -50 8 -11 15 -32 15 -46 0
-15 7 -32 15 -39 8 -7 15 -25 15 -41 0 -16 5 -29 10 -29 6 0 10 -15 10 -34 0
-21 6 -36 15 -40 8 -3 15 -16 15 -29 0 -29 25 -93 40 -102 5 -3 10 -15 10 -26
0 -10 5 -19 10 -19 6 0 10 -11 10 -25 0 -14 4 -25 10 -25 5 0 12 -11 16 -25 3
-14 10 -25 15 -25 5 0 9 -15 9 -34 0 -19 4 -38 10 -41 5 -3 17 -23 26 -43 8
-20 20 -44 25 -52 5 -8 13 -24 18 -35 5 -11 18 -31 30 -44 12 -13 21 -34 21
-46 0 -13 11 -33 25 -46 13 -13 25 -32 25 -41 0 -10 5 -18 10 -18 6 0 10 -11
10 -24 0 -13 7 -26 15 -30 8 -3 15 -13 15 -23 1 -22 23 -53 39 -53 6 0 11 -9
11 -20 0 -12 11 -33 25 -48 14 -15 25 -32 25 -38 0 -7 11 -22 25 -35 13 -13
25 -29 25 -35 0 -7 11 -22 25 -35 13 -13 25 -31 25 -40 0 -9 11 -27 25 -40 13
-13 25 -29 25 -35 0 -6 15 -27 34 -46 18 -19 36 -44 40 -55 3 -11 24 -37 47
-59 22 -21 47 -52 55 -67 8 -15 40 -52 70 -82 29 -30 54 -60 54 -67 0 -18 292
-310 323 -323 12 -5 56 -42 97 -82 41 -40 79 -73 85 -73 6 0 25 -16 44 -35 18
-19 38 -35 45 -35 7 0 29 -16 50 -35 39 -35 89 -65 111 -65 7 0 21 -11 31 -25
10 -14 27 -25 37 -25 11 0 28 -11 39 -25 11 -14 28 -25 38 -25 10 0 21 -4 25
-9 7 -12 64 -41 80 -41 7 0 18 -7 25 -15 7 -8 21 -15 31 -15 11 0 19 -4 19
-10 0 -5 13 -10 29 -10 16 0 34 -7 41 -15 7 -8 25 -15 41 -15 15 0 31 -4 34
-10 3 -5 19 -10 34 -10 16 0 34 -7 41 -15 7 -8 27 -15 46 -15 18 0 36 -4 39
-10 3 -5 23 -10 44 -10 22 0 44 -6 51 -15 8 -10 30 -15 64 -15 29 0 56 -4 62
-10 5 -5 71 -10 146 -11 105 0 140 -4 149 -15 17 -20 313 -20 349 1 18 10 60
14 147 15 70 0 124 4 128 10 3 6 36 10 73 10 39 1 77 7 92 15 47 27 100 14
100 -23 0 -20 -86 -102 -106 -102 -9 0 -25 -11 -36 -25 -11 -14 -26 -25 -33
-25 -8 0 -31 -17 -53 -37 -21 -21 -60 -49 -86 -62 -26 -13 -61 -36 -77 -52
-16 -16 -33 -29 -38 -29 -18 0 -77 -35 -96 -57 -11 -13 -28 -23 -38 -23 -9 0
-17 -4 -17 -10 0 -5 -11 -10 -24 -10 -13 0 -26 -7 -30 -15 -3 -8 -11 -15 -19
-15 -19 0 -127 -57 -152 -80 -12 -11 -26 -20 -32 -20 -17 0 -73 -31 -73 -41 0
-5 -11 -9 -25 -9 -14 0 -25 -4 -25 -10 0 -5 -8 -10 -19 -10 -10 0 -24 -7 -31
-15 -7 -8 -23 -15 -36 -15 -14 0 -32 -4 -42 -9 -9 -5 -24 -12 -32 -15 -8 -4
-28 -15 -45 -25 -16 -11 -42 -20 -56 -20 -15 -1 -32 -8 -39 -16 -7 -8 -23 -15
-35 -15 -13 0 -36 -7 -51 -15 -16 -8 -37 -15 -46 -15 -9 0 -20 -4 -23 -10 -3
-5 -19 -10 -35 -10 -16 0 -32 -4 -35 -10 -3 -5 -19 -10 -34 -10 -16 0 -34 -7
-41 -15 -7 -9 -29 -15 -51 -15 -21 0 -40 -4 -43 -9 -4 -5 -29 -12 -56 -16 -27
-4 -52 -11 -56 -16 -3 -5 -28 -9 -55 -9 -27 0 -60 -7 -72 -15 -14 -9 -42 -14
-72 -13 -31 2 -50 -2 -53 -10 -3 -9 -90 -12 -372 -12 -308 0 -372 2 -396 15
-17 9 -40 13 -57 9 -17 -4 -37 0 -52 10 -13 9 -41 16 -62 16 -21 0 -47 7 -57
15 -11 8 -30 15 -42 15 -13 0 -26 5 -29 10 -3 6 -19 10 -35 10 -16 0 -31 4
-34 9 -3 5 -22 12 -41 15 -19 4 -35 11 -35 16 0 6 -11 10 -25 10 -14 0 -25 5
-25 10 0 6 -8 10 -17 10 -10 0 -31 7 -47 15 -15 8 -32 15 -38 15 -5 0 -19 11
-32 25 -13 14 -30 25 -38 25 -9 0 -21 7 -28 15 -7 8 -19 15 -27 15 -7 0 -26
11 -41 25 -15 14 -32 25 -39 25 -6 0 -20 11 -31 25 -11 14 -25 25 -31 25 -6 0
-11 5 -11 11 0 15 -51 59 -69 59 -16 0 -151 134 -151 150 0 6 -18 30 -40 54
-22 24 -40 48 -40 54 0 6 -15 26 -34 45 -19 20 -37 45 -41 56 -3 12 -11 21
-16 21 -5 0 -9 8 -9 19 0 10 -11 30 -25 45 -14 15 -25 31 -25 37 0 5 -11 27
-25 49 -14 22 -25 45 -25 52 0 7 -7 22 -15 32 -8 11 -15 28 -15 38 0 18 -14
49 -36 78 -6 8 -14 29 -17 45 -4 17 -10 51 -15 77 -5 26 -13 53 -19 60 -16 19
-24 88 -30 237 -2 87 0 138 6 144 6 6 11 22 11 34 0 13 7 35 16 49 9 13 14 27
11 30 -3 4 7 31 24 62 16 30 29 61 29 68 0 8 4 14 9 14 5 0 12 11 15 25 4 14
11 25 16 25 6 0 10 9 10 19 0 11 16 34 35 52 19 19 35 39 35 45 0 7 21 36 48
64 26 29 51 60 56 69 5 9 19 27 32 41 19 21 22 32 17 63 -3 20 -10 37 -14 37
-5 0 -9 5 -9 12 0 18 -33 88 -42 88 -4 0 -8 14 -8 31 0 17 -7 37 -15 45 -8 9
-15 24 -15 35 0 10 -4 19 -10 19 -5 0 -10 6 -10 13 0 7 -5 18 -11 24 -7 7 -13
25 -14 41 -1 15 -14 47 -29 70 -14 23 -26 48 -26 56 0 8 -4 18 -10 21 -5 3
-10 18 -10 33 -1 57 -55 88 -89 51 -12 -13 -21 -29 -21 -36 0 -8 -7 -16 -15
-19 -8 -4 -15 -12 -15 -20 0 -8 -4 -14 -9 -14 -14 0 -61 -52 -61 -69 -1 -9
-19 -34 -40 -56 -22 -22 -40 -45 -40 -53 0 -7 -11 -25 -25 -40 -14 -15 -25
-31 -25 -35 0 -5 -11 -22 -25 -39 -14 -16 -25 -36 -25 -44 0 -8 -5 -14 -11
-14 -15 0 -38 -31 -39 -51 0 -8 -11 -26 -25 -39 -14 -13 -25 -31 -25 -41 0 -9
-11 -24 -25 -33 -14 -9 -25 -22 -25 -30 0 -17 -28 -74 -41 -81 -5 -4 -9 -14
-9 -24 0 -10 -7 -24 -15 -31 -9 -7 -14 -18 -12 -25 3 -6 -6 -21 -19 -34 -13
-13 -24 -32 -24 -43 0 -10 -11 -38 -24 -61 -12 -23 -26 -64 -30 -90 -4 -26
-11 -47 -17 -47 -5 0 -9 -19 -9 -43 0 -24 -4 -47 -10 -53 -5 -5 -10 -41 -11
-79 -1 -39 -8 -82 -16 -97 -20 -41 -19 -465 2 -504 18 -35 19 -56 3 -72 -17
-17 -84 -15 -102 3 -8 8 -21 15 -29 15 -7 0 -24 11 -37 25 -13 14 -29 25 -35
25 -16 0 -73 29 -80 41 -4 5 -14 9 -24 9 -10 0 -28 11 -41 25 -13 14 -29 25
-35 25 -6 0 -22 11 -35 25 -13 14 -30 25 -38 25 -7 0 -32 18 -54 40 -23 22
-46 40 -53 40 -6 0 -23 12 -36 28 -14 15 -44 43 -67 63 -23 20 -42 41 -42 47
0 5 -7 12 -15 16 -8 3 -15 14 -15 25 0 11 -3 21 -7 23 -12 5 -43 68 -43 87 0
21 -27 78 -41 86 -5 4 -9 33 -9 65 0 32 -5 60 -10 62 -6 2 -11 29 -12 60 -1
38 -6 59 -15 62 -15 6 -72 -51 -73 -72 0 -12 -28 -61 -40 -72 -3 -3 -14 -23
-24 -45 -9 -22 -21 -48 -26 -57 -6 -10 -10 -22 -10 -28 0 -6 -11 -28 -25 -50
-14 -22 -25 -44 -25 -49 0 -6 -11 -22 -25 -37 -14 -15 -25 -36 -25 -47 0 -25
-31 -97 -42 -97 -4 0 -8 -9 -8 -19 0 -11 -4 -23 -10 -26 -5 -3 -10 -17 -10
-30 0 -13 -7 -30 -15 -39 -8 -8 -15 -21 -15 -29 0 -8 -7 -28 -15 -43 -8 -16
-15 -37 -15 -46 0 -10 -4 -18 -10 -18 -5 0 -10 -12 -10 -27 0 -16 -7 -37 -15
-47 -8 -11 -15 -32 -15 -47 0 -15 -4 -31 -10 -34 -5 -3 -10 -19 -10 -35 0 -16
-4 -32 -10 -35 -5 -3 -10 -21 -10 -40 0 -18 -7 -40 -15 -49 -9 -8 -15 -33 -15
-58 0 -24 -4 -48 -10 -54 -5 -5 -12 -34 -15 -64 -3 -30 -10 -56 -15 -58 -6 -2
-10 -34 -10 -71 0 -39 -5 -72 -12 -79 -9 -9 -13 -78 -15 -242 -1 -189 1 -232
13 -244 9 -10 14 -37 14 -85 0 -41 4 -71 10 -71 6 0 10 -13 10 -28 0 -16 7
-37 15 -48 8 -10 15 -36 15 -56 0 -20 5 -40 10 -43 6 -3 10 -16 10 -29 0 -12
7 -31 15 -42 8 -10 15 -26 15 -36 0 -9 4 -18 10 -20 5 -1 12 -18 14 -36 2 -19
9 -39 15 -45 6 -6 11 -19 11 -28 0 -10 11 -39 25 -65 14 -26 25 -57 25 -69 0
-13 11 -33 25 -46 13 -13 25 -34 25 -45 0 -12 11 -42 25 -65 14 -24 25 -51 25
-59 0 -8 11 -24 25 -34 16 -12 25 -29 25 -46 0 -17 10 -37 25 -51 13 -13 25
-30 25 -37 0 -7 11 -30 25 -52 14 -22 25 -46 25 -54 0 -8 11 -24 25 -37 13
-13 25 -29 25 -35 0 -6 11 -23 25 -38 14 -15 25 -31 25 -37 0 -5 8 -18 18 -28
52 -57 62 -70 62 -80 0 -7 11 -23 25 -37 14 -14 25 -30 25 -37 1 -16 46 -67
60 -67 5 0 10 -6 10 -13 0 -8 11 -20 25 -27 14 -7 25 -22 25 -32 0 -21 435
-458 456 -458 8 0 35 -22 61 -50 26 -27 53 -50 60 -50 6 0 27 -16 46 -35 19
-19 41 -35 48 -35 8 0 34 -18 58 -40 23 -22 49 -40 56 -40 8 0 17 -4 20 -10 3
-5 13 -10 22 -10 9 0 29 -14 45 -30 16 -17 32 -28 37 -26 4 3 19 -6 31 -19 13
-14 29 -25 36 -25 6 0 17 -7 24 -15 7 -8 21 -15 31 -15 10 0 22 -7 26 -14 9
-17 137 -86 159 -86 8 0 14 -4 14 -8 0 -9 70 -42 88 -42 7 0 12 -4 12 -8 0 -9
70 -42 88 -42 7 0 12 -4 12 -8 0 -11 72 -42 97 -42 11 0 26 -7 33 -15 7 -8 18
-15 25 -15 6 0 34 -11 61 -25 27 -14 57 -25 67 -25 9 0 17 -4 17 -10 0 -5 16
-10 35 -10 22 0 38 -6 41 -15 4 -8 17 -15 29 -15 13 0 27 -4 30 -10 3 -5 19
-10 35 -10 16 0 32 -4 35 -10 3 -5 16 -10 29 -10 12 0 31 -7 42 -15 10 -8 29
-15 40 -15 12 0 35 -7 50 -15 16 -8 37 -15 46 -15 9 0 20 -4 23 -10 3 -5 23
-10 44 -10 22 0 44 -6 51 -15 7 -8 25 -15 41 -15 15 0 31 -4 34 -10 3 -5 23
-10 43 -10 20 0 46 -7 56 -15 11 -8 39 -15 63 -15 24 0 43 -4 43 -10 0 -5 12
-10 28 -10 15 0 36 -7 46 -15 11 -8 37 -15 57 -15 21 0 41 -4 44 -10 3 -5 23
-10 43 -10 20 0 46 -7 56 -15 11 -8 37 -15 57 -15 21 0 41 -4 44 -10 3 -5 26
-10 49 -10 27 0 48 -6 56 -15 7 -8 25 -15 41 -15 16 0 29 -4 29 -10 0 -5 24
-10 54 -10 35 0 60 -5 70 -15 8 -8 28 -15 45 -15 16 0 33 -4 36 -10 3 -5 21
-10 39 -10 18 0 41 -7 52 -15 10 -8 35 -15 54 -15 20 0 40 -4 45 -9 6 -6 29
-11 53 -12 24 -2 48 -9 54 -16 6 -7 28 -13 49 -13 21 0 41 -4 44 -10 3 -5 23
-10 44 -10 20 0 46 -7 57 -15 10 -8 31 -15 46 -15 15 0 30 -4 33 -10 3 -5 26
-10 49 -10 27 0 48 -6 56 -15 8 -10 31 -15 66 -15 29 0 56 -4 59 -10 3 -5 16
-10 29 -10 12 0 31 -7 42 -15 11 -8 41 -15 71 -15 28 0 53 -5 55 -10 2 -6 26
-13 53 -16 27 -2 54 -9 59 -14 6 -6 27 -10 47 -10 21 0 40 -4 43 -9 4 -5 29
-12 56 -16 27 -4 52 -11 56 -16 3 -5 22 -9 43 -9 20 0 42 -5 49 -12 7 -7 31
-13 54 -14 23 -1 44 -7 46 -13 2 -6 26 -11 53 -11 27 0 49 -4 49 -10 0 -5 10
-10 23 -10 12 -1 33 -7 47 -15 14 -8 38 -14 53 -15 16 0 36 -4 45 -9 9 -5 41
-11 71 -14 29 -3 58 -10 64 -16 6 -6 27 -11 47 -11 20 0 41 -5 47 -11 5 -5 30
-12 53 -14 24 -3 48 -9 54 -15 5 -5 26 -10 46 -10 19 0 44 -7 54 -15 11 -8 28
-13 38 -9 10 3 32 -2 50 -10 17 -9 48 -16 69 -16 21 0 40 -4 43 -9 3 -5 26
-12 51 -15 24 -4 47 -11 50 -17 4 -5 23 -9 43 -9 20 0 46 -7 56 -15 11 -8 37
-15 57 -15 21 0 41 -4 44 -10 3 -5 23 -10 43 -10 20 0 46 -7 56 -15 11 -8 37
-15 57 -15 21 0 41 -4 44 -10 3 -5 23 -10 44 -10 20 0 42 -5 47 -10 6 -6 37
-13 70 -15 32 -2 60 -9 62 -15 2 -5 21 -10 43 -10 22 0 50 -6 62 -14 12 -7 38
-14 57 -14 19 -1 36 -6 38 -11 2 -6 23 -11 47 -11 27 0 47 -6 56 -16 9 -11 23
-14 45 -11 20 3 40 0 51 -8 10 -8 27 -15 38 -15 12 0 26 -5 32 -11 6 -6 31
-13 54 -15 24 -2 47 -8 53 -14 5 -5 26 -10 46 -10 20 0 45 -7 56 -15 10 -8 34
-15 52 -15 18 0 42 -4 52 -10 10 -5 41 -10 70 -11 33 -2 54 -7 57 -16 3 -7 18
-13 33 -13 16 0 32 -4 35 -10 3 -5 30 -10 59 -10 35 0 58 -5 66 -15 8 -9 29
-15 56 -15 23 0 46 -4 49 -10 3 -5 19 -10 34 -10 16 0 34 -6 40 -14 7 -8 31
-14 62 -14 28 0 56 -5 62 -11 6 -6 28 -11 48 -11 20 0 42 -7 49 -15 7 -9 29
-15 54 -15 23 0 46 -4 51 -9 6 -5 29 -11 53 -14 23 -2 48 -9 54 -15 7 -7 36
-12 64 -12 29 0 56 -4 59 -10 3 -5 23 -10 43 -10 21 0 46 -6 57 -14 21 -14 70
-22 222 -34 51 -4 98 -13 105 -19 7 -8 41 -13 89 -13 43 0 81 -4 84 -10 8 -14
602 -14 610 0 3 6 23 10 44 10 21 0 52 7 67 15 16 8 43 15 61 15 17 0 35 5 38
10 3 6 15 10 26 10 10 0 19 4 19 10 0 5 18 13 40 16 22 4 40 10 40 15 0 5 9 9
19 9 11 0 22 4 26 9 7 12 64 41 80 41 7 0 23 11 36 25 13 13 32 25 42 25 9 0
17 4 17 10 0 5 11 12 24 16 13 3 34 17 47 30 12 13 30 24 38 24 9 0 25 11 35
25 11 14 25 24 31 21 7 -2 30 13 51 35 31 32 45 39 77 39 33 0 46 7 95 55 31
30 61 55 67 55 7 0 22 11 35 25 13 14 30 25 37 25 8 0 37 -22 65 -50 28 -27
56 -50 62 -50 7 0 34 -22 61 -50 27 -27 55 -50 63 -50 8 0 30 -16 50 -36 20
-20 45 -40 57 -45 11 -5 40 -25 65 -44 25 -19 73 -48 106 -65 34 -17 67 -37
74 -45 7 -8 18 -15 25 -15 7 0 18 -7 25 -15 7 -8 23 -15 35 -15 13 0 54 -16
91 -35 37 -19 74 -35 84 -35 9 0 25 -7 36 -15 10 -8 38 -15 61 -15 23 0 45 -4
48 -10 3 -5 43 -10 89 -10 57 0 88 -5 102 -15 25 -19 225 -21 257 -2 12 6 81
15 152 20 283 16 309 19 329 33 12 8 45 14 83 14 34 0 65 5 68 10 3 6 27 10
53 10 26 1 58 7 72 15 14 8 46 14 72 15 26 0 50 5 53 10 3 6 30 10 59 10 35 0
58 5 66 15 7 9 29 15 51 15 21 0 41 5 44 10 3 6 25 10 49 10 23 0 47 5 54 12
6 6 31 15 57 20 114 21 131 25 152 36 12 7 37 12 57 12 19 0 38 5 41 10 3 6
23 10 43 10 20 0 46 7 56 15 11 8 37 15 57 15 21 0 41 5 44 10 3 6 28 10 54
10 26 0 56 7 67 15 10 8 29 15 41 15 12 0 25 5 28 10 3 6 25 10 49 10 23 0 47
5 54 12 11 11 63 23 147 35 22 3 49 12 60 19 11 8 36 14 57 14 20 0 40 5 43
10 3 6 23 10 43 10 20 0 46 7 56 15 11 8 37 15 57 15 21 0 41 5 44 10 3 6 23
10 43 10 20 0 46 7 56 15 11 8 37 15 57 15 21 0 41 5 44 10 3 6 28 10 54 10
26 0 56 7 67 15 10 8 30 15 44 15 14 0 34 7 44 15 11 8 28 13 38 9 9 -3 28 1
40 8 13 6 48 15 78 19 97 13 151 26 162 37 7 7 30 12 53 12 22 0 48 7 59 15
11 8 30 12 45 9 18 -4 32 0 40 10 8 10 29 16 52 16 21 0 40 4 43 9 3 4 26 11
52 15 26 3 52 10 58 15 6 5 29 11 51 14 38 4 91 20 127 38 10 5 39 9 65 9 27
0 57 7 67 15 11 8 30 15 42 15 13 0 26 5 29 10 3 6 30 10 58 10 30 0 60 7 71
15 11 8 34 15 52 15 18 0 36 5 39 10 3 6 24 10 45 10 21 0 41 4 44 9 4 5 29
12 56 16 27 4 52 11 56 16 3 5 24 9 47 9 23 0 51 7 61 15 11 8 37 15 57 15 21
0 41 5 44 10 3 6 23 10 43 10 20 0 46 7 56 15 11 8 37 15 57 15 21 0 41 5 44
10 3 6 19 10 34 10 16 0 34 7 41 15 8 10 31 15 66 15 29 0 56 5 59 10 3 6 21
10 39 10 19 0 47 7 62 15 16 8 43 15 61 15 17 0 35 5 38 10 3 6 23 10 43 10
20 0 46 7 56 15 11 8 37 15 57 15 21 0 41 5 44 10 3 6 23 10 43 10 20 0 46 7
56 15 11 8 37 15 57 15 21 0 41 5 44 10 3 6 19 10 34 10 16 0 34 7 41 15 7 9
29 15 51 15 21 0 41 5 44 10 3 6 22 10 41 10 20 0 45 5 57 12 22 12 77 24 152
35 22 3 49 12 60 19 11 8 36 14 57 14 20 0 40 5 43 10 3 6 23 10 44 10 22 0
44 6 51 15 7 8 25 15 41 15 15 0 31 5 34 10 3 6 23 10 43 10 20 0 46 7 56 15
11 8 37 15 57 15 21 0 41 5 44 10 3 6 23 10 44 10 20 0 46 7 57 15 10 8 31 15
46 15 15 0 30 5 33 10 3 6 16 10 29 10 12 0 31 7 42 15 10 8 38 15 61 15 23 0
45 5 48 10 3 6 15 10 25 10 10 0 31 6 47 14 15 8 51 21 78 30 79 24 116 37
170 62 28 13 60 24 72 24 12 0 25 5 28 10 3 6 15 10 26 10 11 0 40 11 65 25
25 14 52 25 62 25 14 0 112 47 242 115 14 7 41 20 60 29 19 9 42 21 50 26 8 5
36 18 63 30 26 12 47 25 47 30 0 4 26 20 58 35 31 14 62 32 67 39 6 7 35 25
65 40 30 14 75 42 100 61 25 19 59 42 75 49 17 8 43 28 59 45 17 17 35 31 41
31 6 0 34 23 62 50 28 28 57 50 63 50 7 0 42 29 79 65 37 36 72 65 77 65 12 0
343 331 357 356 6 11 32 44 59 73 26 30 48 59 48 64 0 6 17 29 38 52 33 37 89
120 132 194 8 14 23 32 33 39 9 7 17 19 17 27 0 7 11 26 23 42 13 15 43 66 66
113 67 133 73 144 92 165 10 12 22 36 25 54 4 18 26 71 50 118 24 47 44 92 44
100 0 7 14 39 30 70 17 31 30 64 30 74 0 10 11 38 25 63 14 25 25 54 25 65 0
11 5 23 10 26 6 3 10 18 10 33 0 15 7 36 15 46 8 11 15 30 15 42 0 13 5 26 10
29 6 3 10 30 10 58 1 30 7 60 16 72 11 15 13 34 8 77 -5 45 -3 63 10 82 20 32
23 241 3 268 -9 11 -12 47 -10 113 2 70 -2 105 -12 126 -8 15 -15 46 -15 69 0
23 -7 54 -16 71 -8 16 -13 38 -9 48 3 9 -2 26 -10 37 -8 10 -15 34 -15 52 0
18 -5 43 -11 55 -7 12 -13 28 -14 37 0 8 -6 26 -12 40 -12 28 -32 88 -38 110
-8 31 -28 86 -41 112 -8 14 -14 34 -14 43 0 9 -11 39 -25 67 -14 27 -25 55
-25 63 0 19 -258 531 -275 545 -8 7 -15 18 -15 26 0 15 -58 84 -70 84 -5 0
-20 -21 -34 -46 -21 -38 -26 -60 -26 -116 0 -46 -5 -77 -16 -93 -9 -13 -13
-28 -10 -33 3 -5 -1 -18 -9 -28 -8 -10 -15 -28 -15 -38 0 -11 -14 -48 -31 -83
-23 -48 -56 -89 -128 -159 -52 -52 -101 -94 -106 -94 -6 0 -24 -14 -40 -30
-28 -29 -100 -70 -123 -70 -6 0 -16 -9 -22 -19 -5 -11 -20 -23 -32 -27 -13 -4
-58 -29 -100 -55 -79 -49 -117 -60 -136 -36 -7 8 -11 112 -11 295 -1 232 -3
288 -16 312 -8 16 -15 54 -15 84 0 30 -4 58 -10 61 -5 3 -10 18 -10 33 0 15
-7 36 -15 46 -8 11 -15 30 -15 42 0 13 -4 26 -10 29 -5 3 -10 16 -10 27 0 26
-168 368 -181 368 -5 0 -15 15 -22 33 -8 17 -21 38 -30 46 -10 7 -17 19 -17
26 0 7 -11 23 -24 36 -13 13 -26 33 -30 45 -3 12 -22 35 -41 53 -19 17 -35 36
-35 42 0 6 -11 24 -25 41 -14 16 -25 36 -25 43 0 8 -8 20 -19 27 -10 7 -32 34
-49 59 -17 25 -45 60 -62 76 -17 17 -39 45 -48 64 -26 51 -46 58 -77 29 -27
-25 -65 -93 -65 -116 0 -7 -18 -48 -40 -90 -22 -43 -40 -85 -40 -94 0 -9 -16
-47 -35 -84 -19 -38 -35 -76 -35 -85 0 -10 -7 -26 -15 -37 -8 -10 -15 -29 -15
-42 0 -12 -11 -41 -25 -63 -15 -22 -24 -48 -21 -57 3 -9 33 -44 66 -76 33 -33
60 -64 60 -71 0 -6 16 -26 35 -45 19 -19 35 -39 35 -46 0 -6 10 -24 23 -40 12
-15 52 -89 90 -163 59 -119 67 -141 67 -192 0 -32 5 -61 10 -64 6 -3 10 -30
10 -60 0 -30 -4 -57 -10 -60 -5 -3 -10 -36 -10 -73 -1 -43 -6 -74 -15 -86 -8
-11 -15 -37 -15 -57 0 -21 -4 -41 -10 -44 -5 -3 -10 -16 -10 -29 0 -12 -7 -31
-15 -42 -8 -10 -15 -27 -15 -38 0 -22 -110 -246 -121 -246 -4 0 -21 -28 -38
-62 -17 -35 -47 -83 -66 -108 -19 -25 -41 -58 -49 -75 -18 -38 -264 -280 -294
-289 -12 -4 -27 -16 -32 -27 -6 -10 -17 -19 -25 -19 -7 0 -27 -11 -43 -25 -17
-14 -35 -25 -40 -25 -6 0 -23 -10 -39 -23 -15 -13 -41 -31 -58 -39 -106 -55
-134 -68 -147 -68 -8 0 -36 -11 -62 -25 -26 -14 -61 -25 -77 -25 -17 0 -43 -7
-59 -15 -17 -9 -30 -13 -30 -10 0 3 -13 -1 -30 -10 -16 -8 -47 -15 -68 -15
-22 0 -53 -7 -68 -15 -18 -10 -52 -15 -89 -14 -34 1 -70 -3 -82 -9 -31 -17
-514 -17 -531 0 -7 7 -48 12 -102 13 -53 1 -96 7 -103 14 -6 6 -33 11 -59 11
-28 0 -59 7 -73 16 -13 9 -32 13 -43 10 -10 -3 -27 1 -38 9 -10 8 -40 15 -65
15 -29 0 -63 9 -93 25 -26 14 -62 25 -81 25 -19 0 -37 5 -40 10 -3 6 -14 10
-23 10 -9 0 -30 7 -46 15 -15 8 -36 15 -46 15 -9 0 -38 11 -64 25 -26 14 -54
25 -62 25 -9 0 -52 18 -95 40 -44 22 -85 40 -92 40 -17 0 -326 156 -351 177
-29 25 -63 43 -79 43 -8 0 -22 9 -32 20 -10 11 -41 31 -70 45 -28 13 -58 31
-65 40 -7 9 -36 27 -64 40 -29 14 -65 38 -81 55 -16 16 -35 30 -42 30 -7 0
-25 14 -40 31 -16 17 -43 37 -61 45 -28 11 -33 18 -30 41 3 26 6 28 56 31 31
2 52 -1 52 -7 0 -7 36 -11 98 -11 66 0 106 -5 126 -15 23 -12 77 -15 291 -15
214 0 268 3 291 15 18 9 57 15 101 15 39 0 75 5 78 10 3 6 34 10 68 10 39 1
69 6 81 15 11 8 37 15 57 15 21 0 41 5 44 10 3 6 23 10 43 10 20 0 46 7 56 15
11 8 28 15 37 15 10 0 39 11 65 25 26 14 53 25 61 25 21 0 179 79 194 96 7 8
33 24 60 35 26 11 57 32 70 45 12 13 30 24 40 24 10 0 21 5 24 10 4 6 25 23
48 37 23 14 50 37 60 50 10 12 25 23 33 23 9 0 39 23 68 50 29 28 57 50 62 50
5 0 73 63 152 140 79 77 149 140 157 140 15 0 65 56 65 73 0 7 32 43 70 81 39
38 70 74 70 79 0 5 29 39 64 75 35 37 67 77 70 90 4 12 12 22 17 22 5 0 24 24
43 53 19 28 46 63 60 76 14 14 26 29 26 33 0 5 11 24 25 42 14 18 25 37 25 43
0 5 11 20 25 33 14 13 25 29 25 36 0 7 10 25 23 41 12 15 31 46 42 68 11 22
27 49 37 60 21 25 128 236 128 253 0 7 7 15 15 19 18 6 55 78 55 104 0 10 11
31 25 47 14 17 25 41 25 54 0 13 4 28 9 34 20 20 91 168 91 188 0 12 7 31 15
42 8 10 15 27 15 37 0 10 7 29 16 42 9 13 13 29 9 34 -3 6 6 31 20 56 14 25
25 60 25 78 0 18 7 42 15 53 11 14 14 51 14 154 0 103 -3 140 -14 154 -8 11
-15 27 -15 36 0 9 -11 39 -25 66 -14 27 -25 56 -25 65 0 9 -9 24 -20 34 -11
10 -20 23 -20 30 0 6 -12 29 -27 50 -40 56 -354 374 -376 381 -10 3 -36 26
-59 50 -22 24 -47 44 -54 44 -8 0 -33 17 -57 38 -23 21 -62 49 -87 61 -25 12
-65 38 -90 56 -25 19 -81 52 -126 74 -44 22 -86 47 -93 54 -6 8 -27 18 -45 21
-18 4 -41 15 -51 26 -10 11 -25 20 -34 20 -9 0 -76 29 -149 65 -72 36 -138 65
-146 65 -7 0 -34 11 -60 25 -26 14 -53 25 -60 25 -7 0 -34 11 -60 25 -26 14
-58 25 -71 25 -13 0 -27 5 -30 10 -3 6 -16 10 -29 10 -12 0 -31 7 -42 15 -10
8 -30 15 -44 15 -15 0 -31 5 -37 11 -5 5 -26 11 -44 11 -19 0 -45 6 -59 13
-36 18 -91 36 -123 42 -15 3 -30 9 -33 14 -3 5 -22 9 -43 9 -20 0 -41 4 -46 9
-6 6 -34 12 -63 14 -29 2 -58 9 -65 16 -6 6 -32 11 -57 11 -26 0 -62 7 -79 16
-21 11 -47 15 -71 11 -23 -3 -49 1 -65 9 -16 8 -58 14 -99 14 -46 1 -78 6 -90
15 -28 22 -581 22 -612 1z m-8200 -7878 c9 -12 16 -32 16 -44 0 -13 21 -43 50
-72 28 -28 50 -55 50 -61 0 -17 185 -201 202 -201 8 0 29 -16 46 -35 16 -20
40 -38 53 -40 13 -3 25 -9 27 -15 2 -5 12 -10 22 -10 9 0 23 -7 30 -15 7 -8
16 -13 20 -10 4 3 13 -2 20 -10 7 -8 18 -15 25 -15 6 0 26 -7 43 -16 18 -8 36
-13 41 -10 5 3 14 -1 21 -9 7 -8 25 -15 41 -15 15 0 31 -4 34 -10 3 -5 28 -10
54 -10 26 0 56 -7 67 -15 11 -8 41 -15 69 -15 28 0 55 -4 60 -9 6 -6 39 -11
75 -12 36 -1 76 -7 90 -13 14 -5 72 -13 130 -16 105 -5 105 -5 108 -31 3 -22
-3 -30 -29 -43 -18 -9 -38 -16 -44 -16 -7 0 -18 -7 -25 -15 -7 -8 -21 -15 -31
-15 -10 0 -26 -11 -35 -25 -9 -14 -24 -25 -33 -26 -9 0 -29 -9 -46 -20 -16
-10 -37 -21 -45 -25 -8 -3 -38 -17 -65 -30 -28 -13 -60 -24 -73 -24 -12 0 -22
-4 -22 -8 0 -9 -69 -42 -88 -42 -5 0 -12 -5 -14 -12 -3 -7 -16 -13 -30 -13
-28 -2 -94 -30 -103 -45 -3 -6 -19 -10 -35 -10 -16 0 -32 -4 -35 -10 -3 -5
-24 -10 -46 -10 -23 0 -47 -7 -55 -15 -9 -8 -33 -15 -54 -15 -21 0 -42 -4 -45
-10 -3 -5 -37 -10 -74 -10 -49 0 -72 -4 -81 -15 -17 -21 -158 -21 -186 0 -11
8 -41 15 -71 15 -28 0 -55 5 -58 10 -3 6 -14 10 -25 10 -10 0 -20 7 -24 15 -3
8 -14 15 -23 15 -21 0 -103 83 -103 104 0 8 -4 17 -9 21 -12 7 -41 64 -41 80
0 7 -6 15 -14 18 -22 9 -23 379 -1 397 8 7 15 25 15 41 0 15 5 31 10 34 6 3
10 16 10 29 0 12 7 31 15 42 8 10 15 31 15 46 0 15 5 30 10 33 6 3 10 15 10
26 0 11 13 44 30 73 16 30 27 56 24 58 -2 3 2 11 11 18 8 7 15 21 15 31 0 11
7 19 15 19 9 0 15 9 15 25 0 21 5 25 29 25 20 0 35 -8 45 -22z m5828 -65 c10
-9 18 -23 19 -32 0 -9 9 -29 20 -46 10 -16 22 -37 25 -45 22 -53 36 -80 44
-85 6 -3 10 -26 10 -50 0 -24 5 -47 10 -50 6 -3 10 -16 10 -28 0 -12 7 -31 15
-41 9 -12 15 -41 15 -71 0 -28 5 -56 11 -62 16 -16 15 -211 0 -226 -6 -6 -11
-23 -11 -38 0 -15 -7 -32 -15 -39 -8 -7 -15 -19 -15 -26 0 -51 -144 -194 -195
-194 -7 0 -18 -7 -25 -15 -10 -12 -43 -15 -180 -15 -137 0 -170 3 -180 15 -8
10 -31 15 -66 15 -29 0 -56 5 -59 10 -3 6 -18 10 -33 10 -15 0 -36 7 -46 15
-11 8 -27 13 -37 10 -9 -3 -22 1 -29 10 -7 8 -25 15 -40 15 -15 0 -33 7 -40
15 -7 8 -23 15 -35 15 -12 0 -52 16 -89 35 -37 19 -78 35 -91 35 -12 0 -28 7
-35 15 -7 8 -20 15 -29 16 -9 0 -29 9 -46 19 -16 11 -46 26 -65 35 -19 8 -42
19 -50 25 -8 5 -25 14 -36 19 -12 5 -34 21 -50 36 l-29 26 25 20 c18 13 42 19
87 19 34 0 65 5 68 10 3 6 45 10 93 10 61 1 93 5 106 15 11 8 37 15 57 15 21
0 41 5 44 10 3 6 30 10 59 10 35 0 58 5 66 15 7 8 21 15 31 15 10 0 21 5 24
10 3 6 14 10 24 10 10 0 39 11 65 25 26 14 54 25 62 25 7 0 14 4 14 8 0 5 24
18 53 31 40 17 88 58 210 179 87 86 165 171 174 187 15 30 52 75 61 75 3 0 14
-7 24 -17z"/>
<path d="M36905 19359 c-21 -40 -661 -679 -681 -679 -9 0 -43 -29 -77 -65 -34
-36 -67 -65 -75 -65 -7 0 -35 -22 -61 -50 -26 -27 -55 -50 -65 -50 -9 0 -16
-4 -16 -10 0 -5 -6 -10 -14 -10 -8 0 -16 -7 -20 -15 -3 -8 -13 -15 -22 -15 -9
0 -32 -16 -51 -35 -19 -19 -39 -35 -46 -35 -7 0 -27 -14 -46 -30 -18 -17 -40
-30 -47 -30 -8 0 -19 -9 -26 -20 -7 -11 -20 -20 -29 -20 -9 0 -22 -7 -29 -15
-7 -8 -21 -15 -31 -15 -11 0 -19 -4 -19 -8 0 -9 -69 -42 -88 -42 -5 0 -12 -3
-14 -7 -4 -11 -67 -43 -84 -43 -8 0 -14 -4 -14 -10 0 -5 -8 -10 -19 -10 -10 0
-24 -7 -31 -15 -7 -8 -28 -15 -46 -15 -19 0 -34 -4 -34 -10 0 -5 -11 -12 -25
-16 -14 -3 -25 -10 -25 -15 0 -5 -16 -9 -35 -9 -19 0 -35 -4 -35 -10 0 -5 -8
-10 -19 -10 -10 0 -24 -7 -31 -15 -7 -8 -25 -15 -40 -15 -15 0 -33 -7 -40 -15
-7 -8 -16 -12 -21 -9 -5 3 -25 -2 -44 -10 -19 -9 -50 -23 -69 -31 -19 -8 -41
-15 -50 -15 -9 0 -16 -4 -16 -10 0 -5 -18 -10 -39 -10 -25 0 -41 -5 -45 -15
-3 -9 -18 -15 -35 -15 -16 0 -33 -4 -36 -10 -3 -5 -19 -10 -34 -10 -16 0 -33
-6 -39 -13 -6 -7 -28 -14 -49 -15 -21 -2 -42 -7 -47 -12 -6 -6 -23 -10 -39
-10 -36 0 -67 -32 -67 -69 0 -14 -11 -39 -25 -55 -14 -16 -25 -40 -25 -53 0
-12 -4 -23 -10 -23 -5 0 -10 -8 -10 -19 0 -10 -7 -24 -15 -31 -8 -7 -15 -21
-15 -31 0 -11 -4 -19 -10 -19 -5 0 -10 -8 -10 -19 0 -10 -7 -24 -15 -31 -8 -7
-15 -21 -15 -31 0 -11 -4 -19 -10 -19 -5 0 -10 -8 -10 -19 0 -10 -7 -24 -15
-31 -8 -7 -15 -18 -15 -25 0 -19 -30 -75 -41 -75 -5 0 -9 -10 -10 -22 0 -13
-9 -36 -20 -53 -10 -16 -22 -37 -25 -45 -10 -25 -34 -74 -43 -90 -5 -8 -17
-31 -25 -50 -9 -19 -21 -42 -25 -50 -5 -8 -17 -31 -25 -50 -9 -19 -21 -42 -25
-50 -21 -35 -42 -91 -37 -99 3 -4 -6 -19 -19 -31 -17 -16 -25 -34 -25 -57 0
-18 -5 -33 -10 -33 -6 0 -20 -22 -32 -50 -12 -27 -25 -50 -30 -50 -4 0 -8 -5
-8 -12 0 -18 -33 -88 -42 -88 -4 0 -8 -9 -8 -21 0 -11 -7 -27 -15 -36 -8 -8
-13 -18 -10 -23 3 -4 -2 -13 -10 -20 -8 -7 -15 -21 -15 -31 0 -11 -4 -19 -10
-19 -5 0 -10 -8 -10 -19 0 -10 -7 -24 -15 -31 -8 -7 -15 -21 -15 -31 0 -11 -7
-19 -15 -19 -9 0 -15 -9 -15 -24 0 -14 -4 -28 -10 -31 -5 -3 -10 -19 -10 -34
0 -16 -7 -34 -15 -41 -8 -7 -15 -21 -15 -31 0 -11 -4 -19 -10 -19 -5 0 -10 -8
-10 -19 0 -10 -7 -24 -15 -31 -8 -7 -15 -19 -15 -26 0 -7 -9 -29 -20 -49 -11
-20 -20 -42 -20 -51 0 -8 -7 -17 -15 -20 -8 -4 -15 -12 -15 -19 0 -16 -32 -79
-42 -83 -5 -2 -8 -10 -8 -17 0 -16 -32 -79 -42 -83 -5 -2 -8 -14 -8 -27 0 -12
-7 -25 -15 -29 -8 -3 -15 -14 -15 -25 0 -11 -4 -23 -10 -26 -5 -3 -10 -17 -10
-31 0 -13 -11 -42 -25 -64 -14 -22 -25 -46 -25 -54 0 -8 -5 -18 -10 -21 -6 -3
-19 -26 -30 -50 -11 -24 -24 -47 -30 -50 -5 -3 -10 -17 -10 -30 0 -13 -3 -25
-7 -27 -12 -5 -43 -64 -43 -82 0 -9 -4 -16 -10 -16 -5 0 -10 -11 -10 -24 0
-12 -11 -44 -25 -70 -14 -26 -25 -54 -25 -62 0 -7 -4 -14 -10 -14 -5 0 -12
-11 -16 -25 -3 -14 -10 -25 -15 -25 -5 0 -9 -11 -9 -25 0 -14 -4 -25 -10 -25
-5 0 -12 -11 -16 -25 -3 -14 -10 -25 -15 -25 -5 0 -9 -16 -9 -35 0 -22 -6 -38
-14 -41 -8 -3 -22 -20 -31 -37 -8 -18 -19 -39 -24 -47 -25 -47 -31 -62 -31
-84 0 -13 -7 -29 -15 -36 -8 -7 -15 -17 -15 -22 0 -6 -10 -24 -22 -41 -38 -53
-78 -137 -78 -162 0 -13 -3 -25 -7 -27 -5 -2 -16 -21 -27 -43 -10 -22 -25 -53
-34 -70 -23 -44 -29 -56 -46 -97 -9 -20 -21 -40 -26 -43 -6 -3 -10 -17 -10
-30 0 -24 -29 -87 -42 -93 -5 -2 -8 -14 -8 -27 0 -13 -5 -25 -11 -27 -5 -2
-12 -17 -13 -33 -2 -16 -9 -31 -15 -33 -6 -2 -11 -14 -11 -27 0 -12 -7 -28
-15 -35 -8 -7 -15 -19 -15 -26 0 -8 -4 -14 -10 -14 -5 0 -10 -11 -10 -25 0
-14 -4 -25 -10 -25 -5 0 -10 -13 -10 -29 0 -16 -7 -36 -15 -45 -8 -8 -15 -21
-15 -29 0 -8 -7 -20 -15 -27 -8 -7 -15 -18 -15 -24 0 -16 -52 -120 -62 -124
-4 -2 -8 -17 -8 -33 0 -16 -11 -47 -25 -69 -14 -22 -25 -44 -25 -50 0 -6 -11
-28 -25 -50 -14 -22 -25 -46 -25 -54 0 -8 -4 -18 -10 -21 -5 -3 -16 -21 -25
-40 -8 -19 -22 -50 -30 -69 -8 -19 -15 -38 -15 -43 0 -12 -54 -117 -62 -121
-5 -2 -8 -9 -8 -16 0 -7 -11 -34 -25 -60 -14 -26 -25 -54 -25 -62 0 -7 -4 -14
-9 -14 -5 0 -11 -17 -14 -37 -4 -22 -15 -43 -26 -50 -10 -7 -22 -27 -26 -45
-9 -47 -31 -91 -55 -113 -11 -10 -20 -24 -20 -30 0 -7 -7 -18 -15 -25 -8 -7
-15 -28 -15 -46 0 -19 -4 -34 -8 -34 -4 0 -16 -22 -27 -50 -11 -27 -23 -50
-27 -50 -4 0 -8 -13 -8 -29 0 -16 -7 -34 -15 -41 -8 -7 -15 -28 -15 -46 0 -19
-4 -34 -10 -34 -5 0 -10 -12 -10 -26 0 -14 -11 -45 -25 -70 -14 -25 -25 -58
-25 -73 0 -16 -7 -31 -15 -35 -8 -3 -15 -14 -15 -25 0 -11 -4 -23 -10 -26 -5
-3 -10 -19 -10 -35 0 -16 -4 -31 -9 -34 -16 -10 -52 -88 -47 -102 3 -7 -2 -18
-10 -24 -8 -7 -14 -28 -14 -46 0 -19 -4 -34 -10 -34 -5 0 -10 -9 -10 -21 0
-11 -7 -35 -16 -52 -31 -59 -34 -67 -34 -85 0 -10 -7 -27 -15 -38 -8 -10 -15
-31 -15 -46 0 -14 -3 -28 -7 -30 -14 -6 -43 -69 -43 -93 0 -13 -4 -27 -10 -30
-5 -3 -10 -19 -10 -34 0 -15 -7 -36 -15 -47 -8 -10 -15 -36 -15 -56 0 -21 -4
-38 -10 -38 -5 0 -10 -14 -10 -31 0 -28 -15 -72 -41 -121 -5 -10 -9 -31 -9
-47 0 -16 -7 -34 -15 -41 -9 -7 -15 -29 -15 -51 0 -21 -4 -41 -10 -44 -5 -3
-10 -21 -10 -39 0 -18 -7 -41 -15 -52 -8 -10 -15 -31 -15 -46 0 -15 -4 -30
-10 -33 -5 -3 -12 -28 -16 -55 -4 -28 -10 -50 -15 -50 -5 0 -9 -18 -9 -40 0
-23 -7 -52 -16 -65 -10 -15 -14 -34 -10 -49 4 -16 0 -30 -9 -40 -10 -9 -15
-34 -15 -69 0 -38 -5 -59 -16 -68 -10 -8 -14 -22 -10 -40 3 -15 -1 -34 -9 -45
-8 -11 -15 -40 -15 -65 0 -25 -7 -60 -16 -77 -8 -18 -13 -40 -9 -51 3 -11 -1
-25 -10 -34 -10 -11 -15 -35 -15 -79 0 -35 -5 -69 -12 -76 -6 -6 -13 -48 -15
-94 -3 -46 -9 -87 -14 -92 -5 -6 -9 -36 -9 -68 0 -34 -6 -68 -14 -81 -11 -16
-14 -48 -13 -114 1 -63 -2 -96 -10 -104 -10 -10 -13 -62 -13 -190 0 -148 -3
-179 -16 -190 -13 -11 -15 -51 -12 -318 2 -251 6 -310 18 -328 18 -28 40 -30
40 -4 0 10 7 24 15 31 8 7 15 21 15 31 0 10 5 21 10 24 6 3 10 17 10 30 0 13
7 30 15 39 8 8 15 24 15 35 0 12 5 21 10 21 6 0 10 13 10 29 0 16 7 34 15 41
8 7 15 20 16 29 0 9 9 30 20 46 10 17 21 37 25 45 3 8 10 24 15 35 5 11 10 30
12 43 2 12 9 28 15 34 7 7 12 24 12 39 0 15 5 31 10 34 6 3 10 15 10 26 0 11
7 22 15 25 8 4 15 14 15 24 0 11 5 22 10 25 6 3 10 19 10 34 0 16 7 34 15 41
8 7 15 21 15 31 0 11 5 19 10 19 6 0 10 9 10 21 0 11 6 33 14 47 7 15 22 45
32 67 11 22 22 42 27 43 4 2 7 12 7 22 0 10 5 22 10 25 6 3 10 14 10 23 0 9 7
30 15 46 8 15 15 35 15 42 0 8 5 14 10 14 6 0 10 10 10 23 0 21 51 131 71 151
5 6 9 25 9 42 0 18 4 35 9 39 14 8 41 65 41 86 0 19 31 82 43 87 4 2 7 10 7
17 0 16 32 79 43 83 4 2 7 19 7 37 0 18 3 35 8 37 4 2 15 21 26 43 10 22 25
52 32 67 8 14 14 34 15 45 0 10 9 32 20 48 10 17 21 37 25 45 3 8 10 23 15 32
5 10 9 29 9 43 0 14 7 28 15 31 8 4 15 17 15 30 0 13 5 24 10 24 6 0 10 9 10
20 0 11 7 23 15 26 8 4 15 17 15 30 0 13 4 24 9 24 5 0 12 11 15 25 4 14 11
25 16 25 6 0 10 11 10 25 0 14 5 25 10 25 6 0 10 13 10 28 0 15 5 33 11 39 7
7 14 31 16 55 2 24 9 47 14 52 5 6 9 20 9 32 0 23 29 86 43 92 4 2 7 12 7 22
0 9 7 23 15 30 8 7 15 18 15 25 0 7 11 24 25 39 14 15 25 33 25 40 0 7 11 23
25 36 14 13 25 33 25 44 0 18 52 137 81 186 5 8 12 22 16 30 4 8 17 32 30 52
13 21 23 51 23 67 0 16 3 31 8 33 4 2 15 21 26 43 10 22 22 47 27 55 5 8 12
23 15 33 4 9 10 17 15 17 5 0 9 11 9 24 0 14 4 27 9 31 17 10 41 67 41 97 0
15 4 28 9 28 5 0 12 11 15 25 4 14 11 25 16 25 6 0 10 11 10 25 0 14 4 25 10
25 5 0 12 11 16 25 3 14 10 25 15 25 5 0 9 6 9 14 0 17 32 80 43 84 4 2 7 10
7 17 0 16 32 79 43 83 4 2 7 14 7 27 0 12 7 25 15 29 8 3 15 14 15 25 0 11 5
23 10 26 6 3 10 14 10 25 0 10 7 20 15 24 8 3 15 15 15 26 0 11 5 20 10 20 6
0 10 8 10 19 0 10 7 24 15 31 8 7 15 21 15 31 0 11 5 19 10 19 6 0 10 11 10
24 0 13 7 29 15 36 8 7 15 18 15 24 0 7 11 23 25 36 14 13 25 32 25 42 0 10 5
18 10 18 6 0 10 15 10 34 0 19 4 37 10 41 5 3 25 39 45 80 20 40 43 79 51 86
8 6 22 28 30 48 34 76 49 106 57 109 4 2 7 12 7 22 0 10 4 22 10 25 8 5 22 32
44 85 3 8 15 29 25 45 11 17 20 38 20 48 1 10 8 20 16 23 8 4 15 17 15 30 0
13 5 24 11 24 17 0 38 32 39 58 0 12 4 22 9 22 5 0 11 8 15 18 3 9 9 24 14 32
22 37 32 61 32 73 0 7 13 23 30 35 18 14 45 55 69 105 22 45 49 91 60 101 12
11 21 27 21 36 0 9 10 25 21 36 12 10 25 28 30 39 5 11 13 27 18 35 5 8 16 31
25 51 8 19 24 43 36 54 11 10 20 27 20 37 0 10 7 21 15 24 8 4 15 15 15 26 0
12 16 34 35 51 19 16 35 36 35 43 0 8 11 32 25 54 14 22 25 44 25 50 0 5 18
28 40 50 22 22 40 46 40 53 0 8 9 22 20 32 11 10 22 27 26 39 4 11 22 35 40
53 19 17 34 38 34 45 1 14 34 58 44 58 11 0 105 104 106 117 0 18 115 133 133
133 8 0 29 16 46 35 17 19 33 35 36 35 3 0 29 25 58 56 29 30 67 70 86 87 18
18 56 56 84 85 28 28 56 52 63 52 7 0 92 79 188 175 96 96 180 175 187 175 7
0 64 52 125 115 62 63 116 115 121 116 4 0 28 23 53 51 46 51 123 129 182 184
18 17 49 49 68 72 19 23 40 42 46 42 6 0 17 11 24 25 7 14 16 25 20 25 9 0 66
56 110 108 19 23 39 42 44 42 12 0 35 32 36 49 0 8 34 47 75 88 41 40 75 80
75 88 0 8 6 18 14 22 8 4 15 11 15 16 0 4 17 21 36 38 19 17 35 38 35 47 0 8
18 32 40 53 22 21 40 45 40 53 0 8 16 31 35 50 19 20 35 42 35 50 0 7 11 22
25 32 14 10 25 29 25 41 0 14 6 23 15 23 8 0 15 5 15 10 0 6 11 23 25 38 14
15 25 32 25 38 0 6 9 19 20 29 21 19 50 71 50 89 0 6 9 20 21 29 11 10 25 31
31 47 5 17 14 30 19 30 5 0 9 9 9 20 0 11 7 20 15 20 8 0 15 7 15 15 0 8 5 15
10 15 6 0 10 11 10 24 0 13 5 26 11 28 5 2 11 11 12 20 2 9 7 22 13 29 23 32
39 73 36 95 -2 15 3 26 12 30 9 3 16 14 16 24 0 11 5 22 10 25 6 3 10 19 10
34 0 16 7 34 15 41 8 7 15 28 15 46 0 19 5 34 10 34 6 0 10 6 10 14 0 7 7 19
15 26 9 7 15 29 15 50 0 36 26 101 43 108 4 2 7 23 7 47 0 24 5 47 10 50 6 3
10 24 10 45 0 21 7 45 15 54 8 8 15 32 15 53 0 22 5 44 11 50 5 5 10 38 11 72
1 38 6 68 14 76 9 8 14 37 14 77 1 37 6 70 14 81 9 12 12 39 9 86 -3 52 0 71
12 81 12 10 15 38 15 139 0 72 4 131 10 137 11 11 16 676 5 694 -12 19 -34 10
-50 -21z"/>
<path d="M14514 19347 c-13 -35 12 -836 27 -854 6 -7 13 -52 16 -100 3 -48 9
-92 14 -98 5 -5 9 -43 9 -85 1 -46 6 -85 15 -100 8 -14 14 -42 15 -62 0 -20 5
-40 10 -43 6 -3 10 -26 10 -49 0 -24 7 -57 15 -72 8 -16 15 -43 15 -61 0 -17
5 -35 10 -38 6 -3 10 -23 10 -44 0 -23 6 -44 16 -52 9 -7 14 -22 11 -36 -2
-13 2 -31 9 -40 7 -10 14 -32 14 -49 0 -31 24 -89 41 -99 5 -4 9 -23 9 -43 0
-31 31 -107 66 -163 5 -8 10 -23 11 -34 3 -18 61 -146 84 -185 5 -8 13 -24 18
-35 5 -11 18 -31 30 -44 12 -13 21 -30 21 -38 0 -7 5 -13 10 -13 6 0 10 -8 10
-18 0 -10 11 -29 25 -42 14 -13 25 -31 25 -41 0 -10 11 -26 25 -37 14 -11 25
-26 25 -34 0 -7 11 -25 25 -40 14 -15 25 -33 25 -40 0 -7 12 -24 25 -37 14
-13 25 -29 25 -36 0 -7 18 -32 40 -55 22 -23 40 -48 40 -54 0 -7 11 -23 25
-36 14 -13 25 -30 25 -37 0 -7 26 -39 59 -71 32 -31 61 -67 65 -79 4 -11 27
-40 51 -62 25 -23 45 -48 45 -56 0 -7 45 -58 100 -113 55 -55 100 -104 100
-111 0 -6 7 -11 15 -11 9 0 12 -6 8 -17 -5 -12 -2 -15 10 -10 13 5 17 1 17
-18 0 -15 6 -25 14 -25 8 0 16 -5 18 -10 5 -15 330 -340 340 -340 4 0 8 -5 8
-10 0 -14 62 -69 79 -70 7 0 80 -67 162 -150 91 -91 157 -150 169 -150 13 0
18 -5 14 -15 -4 -9 0 -15 10 -15 9 0 16 -4 16 -10 0 -5 5 -10 11 -10 11 0 39
-24 39 -34 0 -5 60 -66 66 -66 2 0 50 -47 105 -105 56 -57 106 -102 111 -99
10 7 478 -461 478 -479 0 -15 76 -97 90 -97 5 0 7 -7 3 -15 -3 -10 9 -29 34
-53 21 -20 44 -48 51 -62 11 -22 30 -50 78 -115 8 -11 20 -30 27 -42 7 -12 31
-49 55 -83 23 -34 42 -66 42 -71 0 -5 4 -9 9 -9 5 0 16 -16 25 -35 9 -19 21
-37 26 -40 6 -3 10 -18 10 -33 1 -26 15 -53 73 -140 15 -23 27 -49 27 -57 0
-9 6 -18 14 -21 8 -3 29 -35 46 -70 18 -35 45 -75 61 -89 16 -13 29 -30 29
-38 0 -8 10 -25 23 -39 27 -31 57 -85 57 -104 0 -8 5 -14 10 -14 6 0 10 -8 10
-19 0 -10 11 -30 25 -45 14 -15 25 -33 25 -41 0 -8 4 -16 9 -20 6 -3 37 -61
70 -129 33 -67 70 -131 81 -141 11 -10 20 -26 20 -37 0 -10 5 -18 10 -18 6 0
10 -11 10 -24 0 -13 7 -26 15 -30 8 -3 15 -16 15 -29 0 -26 25 -83 41 -92 5
-4 9 -13 9 -21 0 -8 11 -32 25 -54 14 -22 25 -48 25 -59 0 -11 11 -41 25 -67
14 -26 25 -53 25 -59 0 -7 16 -27 35 -44 19 -17 35 -37 35 -44 0 -8 7 -20 15
-27 8 -7 15 -21 15 -31 0 -11 5 -19 10 -19 6 0 10 -8 10 -19 0 -10 7 -24 15
-31 8 -7 15 -21 15 -31 0 -11 5 -19 10 -19 6 0 10 -8 10 -19 0 -10 7 -24 15
-31 8 -7 15 -19 15 -26 0 -8 11 -32 25 -54 14 -22 25 -44 25 -48 0 -14 30 -71
41 -77 5 -4 9 -16 9 -28 0 -12 23 -67 50 -122 28 -55 50 -109 50 -121 0 -11 9
-29 20 -39 22 -20 80 -130 80 -152 0 -7 4 -13 8 -13 11 0 42 -72 42 -98 0 -11
4 -23 9 -26 5 -3 12 -18 15 -33 10 -41 48 -115 63 -120 7 -3 13 -11 13 -18 0
-16 32 -79 43 -83 4 -2 7 -13 7 -24 0 -10 7 -26 15 -34 8 -9 15 -24 15 -33 0
-10 16 -49 35 -87 19 -37 35 -72 35 -76 0 -5 11 -26 25 -48 14 -22 25 -47 25
-55 0 -9 11 -36 25 -61 14 -25 25 -54 25 -64 0 -11 4 -20 8 -20 8 0 42 -69 42
-86 0 -5 18 -45 40 -89 22 -44 40 -85 40 -92 0 -7 5 -13 10 -13 6 0 10 -8 10
-19 0 -10 7 -24 15 -31 8 -7 15 -25 15 -41 0 -16 5 -29 10 -29 6 0 10 -8 10
-17 0 -10 7 -27 15 -37 8 -11 15 -30 15 -42 0 -24 30 -84 43 -84 4 0 7 -8 7
-18 0 -10 4 -22 9 -28 6 -5 12 -22 15 -38 3 -16 10 -34 16 -40 5 -5 10 -18 10
-28 0 -10 5 -18 10 -18 6 0 10 -8 10 -19 0 -10 7 -24 15 -31 8 -7 15 -17 15
-23 0 -18 33 -87 42 -87 4 0 8 -16 8 -35 0 -19 5 -35 10 -35 6 0 10 -8 10 -19
0 -10 7 -24 15 -31 8 -7 15 -24 16 -39 0 -14 9 -39 20 -56 10 -16 21 -37 25
-45 3 -8 12 -27 20 -43 8 -15 12 -32 9 -38 -4 -5 -1 -18 7 -27 21 -27 38 -60
38 -76 0 -7 7 -19 15 -26 8 -7 15 -23 15 -36 0 -12 11 -44 25 -70 14 -26 25
-51 25 -56 0 -5 7 -16 15 -24 8 -9 15 -26 15 -39 0 -13 5 -27 10 -30 6 -3 10
-14 10 -24 0 -10 7 -24 15 -31 8 -7 15 -25 15 -41 0 -16 5 -29 10 -29 6 0 10
-8 10 -19 0 -10 7 -24 15 -31 8 -7 15 -23 15 -35 0 -12 16 -52 35 -89 19 -37
35 -78 35 -91 0 -12 7 -28 15 -35 8 -7 15 -21 15 -31 0 -11 5 -19 10 -19 6 0
10 -11 10 -24 0 -13 7 -26 15 -30 8 -3 15 -17 15 -30 0 -14 11 -46 25 -72 14
-26 25 -54 25 -62 0 -26 54 -132 67 -132 9 0 13 17 13 53 0 29 6 61 13 70 12
17 12 30 -8 662 -4 98 -11 175 -17 182 -6 7 -12 52 -14 100 -2 47 -8 91 -14
97 -5 5 -10 46 -10 91 0 45 -5 86 -10 91 -6 6 -13 39 -15 73 -3 34 -9 71 -15
81 -5 10 -10 38 -10 62 0 24 -4 48 -9 54 -6 5 -12 40 -14 77 -2 38 -9 73 -16
80 -6 6 -11 34 -11 62 0 28 -5 56 -10 61 -6 6 -13 35 -16 65 -3 30 -10 58 -15
63 -5 6 -9 27 -9 47 0 21 -4 40 -9 43 -5 4 -12 29 -16 56 -4 27 -11 52 -16 56
-5 3 -9 22 -9 43 0 20 -7 46 -15 57 -8 10 -15 40 -15 66 0 26 -4 50 -10 53 -5
3 -10 19 -10 35 0 16 -4 32 -10 35 -5 3 -12 28 -16 56 -4 27 -11 52 -15 55 -5
3 -9 17 -9 32 0 15 -7 36 -15 46 -8 11 -15 30 -15 42 0 13 -4 26 -10 29 -5 3
-10 17 -10 29 0 13 -7 37 -15 52 -8 16 -15 48 -15 71 0 23 -4 45 -10 48 -5 3
-10 15 -10 25 0 10 -11 40 -23 67 -13 26 -29 80 -36 118 -10 59 -42 143 -82
217 -5 10 -9 24 -9 33 0 13 -20 65 -41 107 -5 10 -9 28 -9 40 0 13 -11 43 -25
67 -14 23 -25 51 -25 61 0 9 -11 38 -25 64 -14 26 -25 53 -25 61 0 18 -32 89
-42 93 -5 2 -8 19 -8 37 0 18 -4 35 -8 37 -14 6 -72 129 -72 153 0 13 -3 25
-7 27 -10 4 -43 66 -43 79 0 5 -11 27 -25 49 -14 22 -25 53 -25 70 0 16 -4 30
-10 30 -5 0 -12 12 -16 28 -8 36 -23 73 -59 142 -31 60 -35 69 -35 81 0 6 -34
79 -75 162 -41 82 -75 158 -75 167 0 10 -10 30 -22 45 -28 36 -58 95 -58 115
0 8 -11 35 -25 59 -14 23 -25 53 -25 66 0 12 -10 33 -22 47 -24 25 -108 187
-108 207 0 6 -27 66 -60 133 -33 68 -60 128 -60 135 0 7 -4 13 -9 13 -5 0 -12
11 -15 25 -4 14 -11 25 -16 25 -6 0 -10 14 -10 30 0 17 -11 48 -25 70 -14 22
-25 43 -25 47 0 12 -61 133 -71 138 -5 4 -9 18 -9 33 0 15 -11 40 -25 56 -14
16 -25 37 -25 48 0 10 -4 26 -9 36 -5 9 -12 24 -15 32 -4 8 -15 29 -25 45 -11
17 -20 37 -20 46 -1 9 -8 19 -16 23 -8 3 -15 14 -15 25 0 11 -4 23 -10 26 -5
3 -10 15 -10 26 0 11 -7 22 -15 25 -9 4 -15 19 -15 39 0 24 -7 39 -25 53 -17
13 -25 30 -25 50 0 17 -3 32 -7 34 -11 4 -43 67 -43 84 0 8 -4 14 -10 14 -5 0
-10 11 -10 24 0 13 -7 26 -15 30 -8 3 -15 13 -15 23 0 10 -7 27 -15 37 -8 10
-12 22 -10 26 3 5 -2 10 -10 14 -8 3 -15 18 -16 33 0 15 -9 42 -20 58 -10 17
-21 37 -25 45 -19 48 -27 67 -35 80 -5 8 -19 36 -31 63 -12 26 -25 47 -30 47
-4 0 -8 11 -8 25 0 14 -4 25 -10 25 -5 0 -10 9 -10 19 0 11 -4 22 -9 26 -12 7
-71 128 -71 145 0 7 -11 28 -25 46 -14 18 -25 43 -26 56 0 13 -9 37 -20 53
-10 17 -21 37 -25 45 -3 8 -13 29 -22 45 -20 38 -21 40 -81 165 -28 58 -51
110 -51 115 0 9 -90 201 -111 235 -9 16 -33 65 -43 90 -3 8 -15 29 -25 45 -11
17 -20 38 -20 48 -1 9 -5 17 -9 17 -5 0 -15 17 -24 38 -8 20 -18 44 -22 52 -3
8 -15 29 -25 45 -11 17 -20 42 -20 56 -1 15 -8 32 -16 39 -8 7 -15 16 -15 21
0 15 -80 178 -91 184 -5 4 -9 15 -9 26 0 10 -4 19 -10 19 -5 0 -10 8 -10 19 0
10 -7 24 -15 31 -8 7 -15 21 -15 31 0 11 -4 19 -10 19 -5 0 -10 8 -10 19 0 10
-7 24 -15 31 -8 7 -15 21 -15 31 0 11 -4 19 -10 19 -5 0 -10 8 -10 19 0 10 -7
24 -15 31 -8 7 -15 20 -16 29 0 9 -9 30 -20 46 -10 17 -21 37 -25 45 -3 8 -12
28 -21 43 -8 16 -12 31 -9 34 7 8 -43 96 -60 106 -8 4 -14 17 -14 27 0 11 -4
20 -10 20 -5 0 -10 11 -10 25 0 14 -7 28 -15 31 -8 4 -15 14 -15 23 0 9 -7 24
-14 34 -8 10 -12 26 -9 36 2 9 -3 23 -11 30 -9 8 -16 22 -16 32 0 11 -4 19
-10 19 -5 0 -12 11 -16 24 -10 40 -58 76 -103 76 -22 0 -43 5 -46 10 -3 6 -19
10 -34 10 -16 0 -34 7 -41 15 -8 9 -30 15 -56 15 -24 0 -44 5 -44 10 0 6 -10
10 -23 10 -13 0 -32 7 -43 15 -10 8 -26 15 -35 15 -9 0 -22 6 -28 14 -6 7 -23
14 -38 14 -15 0 -29 5 -31 11 -2 6 -17 11 -33 11 -16 0 -47 11 -69 25 -22 14
-53 25 -69 25 -16 0 -32 4 -36 9 -8 14 -65 41 -87 41 -10 0 -36 11 -58 25 -22
14 -46 25 -54 25 -8 0 -18 5 -21 10 -3 6 -17 10 -30 10 -13 0 -30 7 -39 15 -8
8 -19 15 -24 15 -16 0 -175 83 -197 103 -11 10 -30 20 -42 23 -13 4 -23 10
-23 15 0 5 -11 9 -25 9 -14 0 -25 4 -25 9 0 5 -8 12 -17 15 -10 3 -35 22 -55
41 -20 19 -43 35 -51 35 -7 0 -24 11 -37 25 -13 14 -28 25 -34 25 -6 0 -36 23
-66 50 -30 28 -58 50 -62 50 -4 0 -31 22 -60 50 -29 27 -59 50 -66 50 -7 0
-57 45 -111 100 -53 55 -103 100 -110 100 -8 0 -73 60 -146 133 -72 72 -145
144 -161 158 -16 15 -52 52 -81 83 -28 31 -56 56 -62 56 -6 0 -11 10 -11 23 0
14 -17 39 -44 65 -45 43 -73 53 -82 29z"/>
<path d="M32357 17136 c-4 -11 -20 -16 -49 -16 -24 0 -51 -7 -62 -15 -11 -8
-30 -12 -45 -9 -18 4 -32 0 -40 -10 -9 -11 -30 -16 -67 -16 -29 0 -56 -4 -59
-10 -3 -5 -26 -10 -49 -10 -27 0 -48 -6 -56 -15 -7 -8 -29 -15 -49 -15 -20 0
-42 -5 -48 -11 -6 -6 -29 -12 -52 -13 -23 -1 -46 -7 -53 -14 -7 -7 -26 -12
-43 -12 -18 0 -46 -7 -64 -16 -18 -9 -43 -14 -57 -11 -13 2 -29 -2 -35 -9 -6
-8 -29 -14 -51 -14 -23 0 -46 -7 -55 -16 -9 -9 -25 -13 -37 -10 -12 3 -34 -1
-50 -9 -16 -8 -45 -15 -66 -15 -21 0 -40 -5 -42 -11 -2 -6 -25 -13 -51 -16
-26 -3 -50 -10 -53 -14 -3 -5 -29 -9 -58 -9 -28 0 -57 -5 -64 -12 -6 -6 -28
-13 -49 -15 -21 -2 -42 -8 -48 -14 -5 -5 -23 -9 -41 -9 -18 0 -34 -5 -36 -10
-2 -6 -29 -14 -61 -17 -32 -3 -60 -10 -63 -14 -3 -5 -25 -9 -48 -9 -27 0 -48
-6 -56 -15 -7 -8 -28 -15 -46 -15 -19 0 -34 -4 -34 -10 0 -6 -26 -10 -59 -10
-43 0 -60 -4 -65 -15 -4 -10 -20 -15 -51 -15 -25 0 -45 -4 -45 -10 0 -5 -15
-10 -34 -10 -19 0 -36 -5 -38 -11 -2 -7 -31 -14 -63 -16 -33 -3 -61 -9 -63
-14 -2 -5 -25 -9 -52 -9 -33 0 -50 -5 -54 -15 -4 -10 -19 -15 -49 -15 -38 0
-48 -5 -87 -46 -41 -42 -44 -46 -27 -58 16 -12 17 -53 17 -613 0 -488 -3 -603
-13 -612 -10 -8 -14 -46 -15 -138 -1 -77 -6 -129 -12 -131 -6 -2 -10 -42 -10
-97 0 -66 -4 -96 -14 -104 -9 -8 -13 -36 -13 -93 0 -52 -4 -83 -12 -86 -6 -2
-11 -26 -11 -56 0 -29 -5 -57 -12 -64 -6 -6 -12 -41 -13 -77 -1 -36 -7 -71
-13 -77 -7 -7 -12 -26 -12 -44 0 -17 -7 -45 -15 -60 -8 -16 -15 -43 -15 -61 0
-17 -4 -35 -10 -38 -5 -3 -10 -20 -10 -36 0 -17 -7 -37 -15 -45 -8 -9 -15 -26
-15 -39 0 -13 -4 -27 -10 -30 -5 -3 -10 -21 -10 -40 0 -20 -6 -35 -15 -39 -9
-3 -15 -18 -15 -35 0 -16 -4 -33 -10 -36 -5 -3 -10 -14 -10 -24 0 -10 -7 -24
-15 -31 -8 -7 -15 -21 -15 -31 0 -11 -4 -19 -10 -19 -5 0 -10 -6 -10 -14 0 -7
-7 -19 -15 -26 -8 -7 -15 -23 -15 -36 0 -13 -4 -24 -10 -24 -5 0 -10 -9 -10
-19 0 -11 -4 -22 -9 -26 -11 -6 -71 -123 -71 -138 0 -5 -11 -20 -25 -33 -14
-13 -25 -27 -25 -32 0 -15 -31 -72 -40 -72 -4 0 -16 -17 -25 -37 -10 -20 -33
-51 -51 -69 -19 -17 -34 -39 -34 -49 0 -9 -11 -26 -25 -37 -14 -11 -25 -26
-25 -35 0 -9 -18 -37 -40 -62 -22 -25 -55 -64 -75 -87 -19 -23 -35 -47 -35
-53 0 -7 -34 -47 -75 -88 -41 -42 -75 -82 -75 -89 0 -15 -105 -124 -120 -124
-5 0 -10 -4 -10 -9 0 -11 -129 -141 -140 -141 -6 0 -10 -7 -10 -15 0 -8 -3
-15 -8 -15 -12 0 -72 -58 -72 -69 0 -6 16 -11 35 -11 19 0 35 5 35 10 0 6 17
10 39 10 21 0 52 7 67 15 16 8 37 15 46 15 9 0 20 5 23 10 3 6 14 10 24 10 10
0 24 7 31 15 7 9 29 15 51 15 21 0 41 5 44 10 3 6 14 10 24 10 10 0 24 7 31
15 7 8 25 15 41 15 16 0 29 5 29 10 0 6 9 10 21 10 11 0 27 7 35 15 9 8 26 15
39 15 13 0 27 5 30 10 3 6 14 10 25 10 10 0 21 7 24 16 3 9 13 14 21 10 8 -3
21 1 29 9 8 8 21 15 30 15 8 0 18 4 21 10 3 5 23 17 43 26 77 34 107 49 110
57 2 4 12 7 22 7 9 0 23 7 30 15 7 8 21 15 31 15 11 0 19 4 19 9 0 5 11 12 25
15 14 4 25 11 25 16 0 6 10 10 23 10 12 0 31 11 41 25 10 14 24 25 31 25 21 0
96 41 102 55 3 8 13 15 23 15 10 0 23 7 30 15 7 8 19 15 27 15 8 0 29 16 47
35 19 19 40 35 48 35 9 0 21 7 28 15 7 8 19 15 27 15 8 0 29 16 47 35 19 19
40 35 47 35 17 1 79 56 79 70 0 5 9 10 20 10 12 0 42 22 69 50 27 28 55 50 63
50 15 0 148 127 148 141 0 5 7 9 15 9 8 0 15 5 15 10 0 6 6 10 13 10 18 0 86
52 87 66 0 6 11 17 25 24 14 7 25 17 25 21 0 4 38 45 85 91 47 45 85 89 85 96
0 8 54 69 120 136 66 66 130 137 141 156 12 19 32 45 45 57 13 12 24 28 24 36
0 7 11 24 25 37 14 13 25 29 25 35 0 6 16 28 36 49 22 24 37 50 38 67 1 17 12
36 29 50 19 15 27 28 24 41 -3 11 0 21 9 25 8 3 14 13 14 23 0 9 11 26 25 36
14 10 25 27 25 37 0 10 7 20 15 23 8 4 15 15 15 25 0 11 9 30 21 42 11 12 29
40 39 62 10 22 28 50 39 62 12 12 21 29 21 36 0 8 7 20 15 27 8 7 15 21 15 31
0 11 5 19 10 19 6 0 10 9 10 21 0 12 11 30 25 41 14 11 25 28 25 38 0 10 4 21
9 24 9 6 91 166 91 179 0 4 11 25 25 47 14 22 25 46 25 54 0 7 7 19 15 26 8 7
15 21 15 30 0 10 3 20 8 22 9 4 112 210 112 225 0 7 7 16 16 21 11 6 15 17 11
31 -3 12 1 28 9 36 8 8 17 25 19 37 3 13 9 24 15 26 5 2 10 12 10 23 0 10 5
19 10 19 6 0 10 8 10 18 0 9 7 26 15 36 8 11 15 30 15 42 0 24 30 84 43 84 4
0 7 15 7 34 0 19 5 38 10 41 6 3 10 20 10 36 0 17 6 32 15 35 8 4 15 14 15 24
0 11 5 22 10 25 6 3 10 19 10 34 0 16 7 34 15 41 8 7 15 25 15 40 0 15 7 33
15 40 9 7 13 21 9 35 -3 13 1 28 10 38 9 8 16 26 16 39 0 13 5 29 11 35 5 5
11 25 11 43 1 17 7 34 15 37 8 3 13 21 13 48 0 24 5 47 10 50 6 3 10 18 10 33
0 15 7 36 15 46 8 11 15 34 15 52 0 18 5 36 10 39 6 3 10 30 10 59 0 35 5 58
15 66 11 9 15 33 15 86 0 43 4 74 10 74 14 0 12 102 -3 120 -17 21 -63 25 -70
6z"/>
<path d="M19042 17128 c-15 -15 -16 -64 -2 -73 6 -3 10 -32 10 -64 0 -32 7
-71 14 -87 8 -16 13 -46 12 -66 -3 -23 1 -42 10 -49 8 -6 14 -30 14 -54 0 -24
6 -48 14 -54 7 -6 13 -29 13 -52 0 -22 5 -45 12 -52 6 -6 11 -22 11 -36 0 -15
7 -35 15 -45 8 -11 15 -34 15 -52 0 -18 5 -36 10 -39 6 -3 10 -19 10 -34 0
-16 7 -34 15 -41 8 -7 15 -25 15 -41 0 -15 5 -31 10 -34 6 -3 10 -18 10 -33 0
-15 7 -36 15 -46 8 -11 15 -30 15 -42 0 -13 5 -26 10 -29 6 -3 10 -16 10 -29
0 -13 11 -44 25 -70 14 -26 25 -58 25 -72 0 -13 4 -24 8 -24 10 0 42 -71 42
-92 0 -9 7 -18 15 -22 9 -3 15 -18 15 -35 0 -16 5 -33 10 -36 6 -3 10 -13 10
-21 0 -9 7 -22 15 -30 8 -9 15 -28 15 -44 0 -16 3 -30 8 -32 11 -5 42 -64 42
-81 0 -9 3 -17 8 -19 6 -3 49 -86 66 -128 4 -8 15 -28 25 -45 11 -16 20 -36
20 -43 1 -7 12 -30 26 -52 14 -22 25 -46 25 -54 0 -7 7 -19 15 -26 8 -7 15
-21 15 -31 0 -11 5 -19 10 -19 6 0 10 -8 10 -19 0 -10 7 -24 15 -31 8 -7 15
-21 15 -31 0 -11 5 -19 10 -19 6 0 10 -9 10 -19 0 -11 4 -23 10 -26 5 -3 21
-30 34 -60 14 -29 30 -56 36 -60 6 -4 15 -17 21 -28 5 -12 13 -29 18 -37 5 -8
17 -32 27 -53 11 -21 27 -47 37 -57 9 -11 17 -26 17 -33 0 -8 7 -20 15 -27 8
-7 15 -19 15 -27 0 -7 9 -24 21 -36 11 -12 31 -46 45 -75 13 -29 31 -55 39
-58 8 -4 15 -12 15 -20 0 -7 14 -29 30 -47 17 -19 30 -41 30 -48 0 -8 11 -22
24 -33 14 -10 23 -23 20 -30 -2 -6 9 -25 26 -41 16 -16 30 -35 30 -43 0 -8 8
-22 19 -31 10 -9 21 -26 25 -38 4 -12 23 -38 42 -57 18 -18 34 -40 34 -48 0
-7 34 -46 75 -86 41 -40 75 -78 75 -85 0 -14 107 -127 120 -127 6 0 10 -4 10
-9 0 -9 176 -191 185 -191 5 0 30 -27 114 -118 22 -24 44 -41 50 -38 5 4 43
-28 85 -69 41 -41 80 -75 87 -75 6 0 27 -16 45 -34 19 -19 45 -38 57 -42 12
-4 36 -22 54 -40 17 -19 38 -34 46 -34 7 0 24 -11 37 -25 13 -14 31 -25 40
-25 10 0 26 -11 36 -25 10 -14 26 -25 34 -25 8 0 26 -12 39 -25 13 -14 31 -25
41 -25 9 0 26 -11 36 -25 10 -14 28 -25 40 -25 12 0 24 -7 28 -15 3 -8 11 -15
19 -15 7 0 24 -11 37 -25 13 -14 31 -25 41 -25 10 0 21 -4 24 -10 3 -5 15 -10
26 -10 11 0 22 -7 25 -15 4 -8 14 -15 25 -15 10 0 22 -6 26 -14 11 -18 91 -56
119 -56 13 0 26 -5 29 -10 4 -6 29 -20 56 -32 27 -12 49 -25 49 -30 0 -4 7 -8
15 -8 8 0 23 -4 33 -9 9 -5 24 -12 32 -15 8 -4 29 -15 45 -25 17 -11 38 -20
48 -20 11 -1 31 -7 45 -15 43 -22 99 -46 111 -46 6 0 26 -9 45 -19 19 -11 51
-23 70 -27 20 -3 36 -10 36 -15 0 -5 16 -9 35 -9 19 0 35 -4 35 -10 0 -5 15
-10 33 -10 17 0 45 -7 61 -15 15 -8 38 -15 50 -15 11 0 30 -7 40 -15 10 -8 23
-12 27 -9 13 8 11 34 -2 34 -6 0 -45 35 -86 78 -42 42 -83 77 -92 77 -9 0 -15
7 -14 15 2 8 -49 66 -112 129 -63 63 -115 120 -115 126 0 7 -22 35 -50 63 -27
28 -50 56 -50 62 0 5 -6 10 -13 10 -6 0 -18 14 -25 30 -8 17 -27 45 -43 63
-16 17 -40 45 -54 60 -14 16 -23 33 -20 38 4 5 -1 9 -9 9 -9 0 -16 7 -16 16 0
9 -11 27 -25 40 -14 13 -25 29 -25 37 0 7 -11 24 -25 37 -14 13 -25 28 -25 34
0 6 -11 23 -25 38 -14 15 -25 34 -25 43 0 9 -7 18 -15 21 -8 4 -15 15 -15 25
0 11 -9 30 -20 42 -24 25 -50 74 -50 92 0 7 -7 18 -15 25 -8 7 -15 21 -15 30
0 10 -3 20 -7 22 -11 4 -43 67 -43 83 0 7 -3 15 -7 17 -15 6 -63 113 -63 139
0 15 -7 29 -15 33 -8 3 -15 14 -15 25 0 11 -4 23 -10 26 -5 3 -10 23 -10 43 0
20 -7 46 -15 56 -8 11 -15 29 -15 41 0 12 -5 26 -12 33 -6 6 -11 26 -10 43 0
18 -6 42 -14 53 -8 11 -14 37 -14 56 0 20 -5 41 -12 48 -6 6 -11 26 -10 44 0
18 -6 43 -14 55 -7 12 -14 44 -14 71 0 26 -5 53 -10 58 -6 6 -12 44 -13 85 -2
41 -9 84 -15 96 -7 12 -12 54 -12 93 0 46 -5 76 -13 85 -9 9 -14 50 -16 136
-1 68 -6 128 -12 134 -5 5 -9 112 -9 250 0 156 -4 245 -11 252 -14 14 -15 451
0 466 7 7 11 77 11 207 -1 220 -4 230 -64 230 -20 0 -36 5 -36 10 0 6 -12 10
-27 10 -16 1 -39 7 -53 15 -14 8 -39 14 -57 15 -17 0 -35 5 -38 10 -3 6 -28
10 -54 10 -26 0 -56 7 -67 15 -10 8 -38 15 -61 15 -24 0 -43 5 -43 10 0 6 -20
10 -44 10 -26 0 -48 6 -56 15 -7 9 -29 15 -51 15 -21 0 -41 5 -44 10 -3 6 -23
10 -44 10 -20 0 -46 7 -57 15 -10 8 -38 15 -61 15 -24 0 -43 4 -43 9 0 5 -29
13 -65 16 -36 4 -65 11 -65 16 0 5 -15 9 -34 9 -19 0 -37 4 -41 9 -3 6 -26 13
-50 17 -25 3 -48 10 -51 15 -3 5 -23 9 -44 9 -21 0 -42 5 -45 10 -3 6 -23 10
-43 10 -20 1 -48 7 -62 15 -14 8 -42 14 -62 15 -20 0 -40 5 -43 10 -3 6 -28
10 -54 10 -26 0 -56 7 -67 15 -10 8 -36 15 -56 15 -20 0 -40 5 -43 10 -3 6
-23 10 -44 10 -20 0 -46 7 -57 15 -10 8 -35 15 -54 15 -20 0 -41 5 -47 11 -5
5 -30 12 -53 14 -24 3 -48 9 -54 15 -5 5 -26 10 -45 10 -20 0 -45 7 -55 15
-11 8 -36 15 -56 15 -20 0 -40 4 -45 9 -6 5 -28 11 -50 14 -67 9 -139 27 -149
37 -6 6 -29 10 -52 10 -24 0 -46 5 -49 10 -8 14 -28 13 -43 -2z"/>
<path d="M29039 8818 c-7 -13 -12 -40 -10 -62 1 -21 -5 -49 -14 -62 -8 -13
-15 -45 -15 -73 0 -27 -4 -53 -10 -56 -5 -3 -10 -25 -10 -48 0 -23 -7 -55 -15
-71 -8 -15 -15 -50 -15 -77 0 -26 -4 -51 -10 -54 -5 -3 -10 -21 -10 -38 0 -18
-7 -45 -15 -61 -8 -15 -15 -48 -15 -72 0 -23 -4 -46 -10 -49 -5 -3 -10 -21
-10 -38 0 -18 -7 -45 -15 -61 -8 -15 -15 -41 -15 -58 0 -16 -7 -42 -16 -59 -8
-16 -13 -38 -9 -48 3 -9 -2 -26 -10 -37 -8 -10 -15 -32 -15 -47 0 -31 -28
-127 -41 -142 -5 -5 -9 -25 -9 -45 0 -19 -6 -44 -14 -55 -7 -11 -13 -27 -14
-35 0 -16 -16 -66 -37 -115 -7 -16 -18 -50 -25 -75 -7 -25 -17 -56 -23 -70 -6
-14 -12 -32 -13 -40 -4 -26 -25 -83 -50 -135 -13 -28 -24 -57 -24 -65 0 -8
-11 -35 -25 -59 -14 -23 -25 -52 -25 -63 0 -10 -11 -39 -25 -64 -14 -25 -25
-52 -25 -60 0 -16 -55 -133 -71 -148 -5 -6 -9 -16 -9 -24 0 -8 -11 -25 -25
-38 -16 -15 -25 -34 -25 -53 0 -18 -7 -34 -17 -39 -9 -5 -24 -23 -32 -39 -9
-16 -25 -44 -36 -63 -24 -41 -310 -330 -326 -330 -7 0 -31 -18 -55 -40 -24
-22 -50 -40 -57 -40 -7 0 -24 -11 -37 -25 -13 -14 -29 -25 -36 -25 -7 0 -19
-9 -26 -19 -8 -11 -34 -27 -58 -37 -25 -9 -56 -27 -70 -39 -14 -12 -56 -37
-95 -55 -38 -19 -74 -39 -80 -46 -5 -6 -39 -26 -75 -44 -36 -18 -86 -43 -111
-56 -26 -13 -54 -24 -62 -24 -9 0 -74 -29 -145 -65 -71 -36 -136 -65 -144 -65
-9 0 -36 -11 -59 -25 -24 -14 -54 -25 -66 -25 -12 0 -25 -4 -28 -10 -3 -5 -17
-10 -30 -10 -12 0 -43 -11 -66 -25 -24 -14 -52 -25 -62 -25 -10 0 -37 -11 -60
-23 -23 -13 -53 -26 -67 -29 -30 -7 -88 -27 -112 -39 -10 -5 -26 -9 -37 -9
-11 0 -32 -6 -48 -14 -15 -8 -50 -21 -78 -30 -56 -17 -110 -35 -140 -47 -53
-22 -113 -39 -140 -39 -16 0 -37 -6 -46 -13 -9 -7 -38 -11 -65 -10 -240 12
-290 16 -298 24 -6 5 -23 9 -38 9 -18 0 -28 5 -28 15 0 9 -9 15 -24 15 -14 0
-28 5 -31 10 -3 6 -16 10 -27 10 -38 0 -159 46 -166 63 -2 4 -18 7 -37 7 -18
0 -38 7 -45 15 -7 8 -25 15 -41 15 -15 0 -31 5 -34 10 -3 6 -19 10 -35 10 -16
0 -31 4 -35 9 -9 15 -66 41 -90 41 -13 0 -28 7 -35 15 -7 8 -18 15 -25 15 -6
0 -26 7 -43 16 -18 8 -36 13 -41 10 -5 -3 -14 1 -21 9 -7 8 -18 15 -25 15 -16
0 -73 29 -80 41 -4 5 -18 9 -33 10 -15 0 -40 9 -57 20 -16 10 -37 21 -45 25
-8 3 -46 21 -85 40 -38 19 -80 34 -93 34 -12 0 -25 7 -28 15 -4 8 -15 15 -26
15 -10 0 -29 11 -42 25 -13 14 -28 25 -35 25 -6 0 -29 11 -51 25 -22 14 -44
25 -50 25 -9 0 -32 10 -70 32 -8 4 -24 12 -35 17 -11 5 -29 18 -39 30 -11 11
-25 21 -32 21 -7 0 -25 11 -40 25 -15 14 -32 25 -39 25 -7 0 -18 7 -25 15 -7
8 -19 15 -27 15 -17 0 -43 24 -43 39 0 6 -7 11 -15 11 -8 0 -15 5 -15 10 0 6
-8 10 -17 10 -10 0 -40 23 -68 50 -27 28 -55 50 -61 50 -16 0 -254 238 -254
254 0 7 -7 19 -15 26 -8 7 -15 20 -15 29 0 9 -11 25 -25 35 -14 10 -25 24 -25
31 0 19 -28 70 -50 90 -11 10 -20 23 -20 30 0 7 -11 33 -25 59 -14 26 -25 55
-25 65 0 10 -7 24 -15 31 -8 7 -15 21 -15 31 0 10 -4 21 -10 24 -5 3 -10 15
-10 26 0 11 -11 40 -25 65 -14 25 -25 51 -25 58 0 8 -7 19 -15 26 -8 7 -15 27
-15 45 0 19 -3 35 -7 37 -14 6 -43 69 -43 93 0 13 -4 27 -10 30 -5 3 -10 19
-10 35 0 15 -7 30 -15 34 -9 3 -15 19 -15 41 0 19 -4 35 -10 35 -5 0 -10 13
-10 28 0 16 -7 37 -15 48 -8 10 -15 30 -15 44 0 14 -7 34 -15 44 -8 11 -13 27
-10 37 3 9 -1 22 -10 29 -9 7 -15 29 -15 50 0 21 -8 53 -17 72 -9 18 -20 41
-25 50 -4 10 -8 34 -8 53 0 20 -7 47 -16 60 -9 13 -13 32 -10 43 3 10 -1 27
-9 38 -8 10 -15 30 -15 45 0 14 -5 30 -10 35 -6 6 -12 30 -15 54 -2 23 -9 48
-14 53 -6 6 -11 34 -11 62 0 28 -7 58 -15 69 -8 11 -15 37 -15 58 0 21 -4 38
-10 38 -5 0 -10 25 -10 56 0 37 -5 61 -16 71 -10 10 -13 25 -9 42 3 16 0 34
-9 46 -10 13 -16 44 -16 85 0 41 -6 72 -15 84 -9 11 -15 41 -15 68 0 36 -4 48
-15 48 -8 0 -15 -8 -15 -18 0 -10 -4 -22 -10 -28 -5 -5 -10 -56 -12 -112 -1
-66 -6 -109 -15 -120 -8 -11 -12 -52 -13 -119 0 -57 -4 -105 -10 -108 -6 -3
-10 -48 -10 -99 0 -66 -4 -98 -15 -112 -11 -15 -14 -55 -15 -184 0 -92 -4
-170 -9 -175 -6 -6 -11 -104 -13 -219 -2 -156 -6 -210 -15 -214 -10 -3 -13
-88 -13 -382 0 -294 3 -379 13 -382 9 -3 13 -45 15 -149 2 -79 8 -148 13 -154
5 -5 9 -49 9 -97 0 -57 5 -97 13 -111 8 -12 15 -47 16 -77 0 -30 6 -59 11 -64
6 -6 10 -29 10 -52 0 -23 6 -47 14 -53 8 -7 14 -31 14 -61 1 -26 5 -57 10 -67
6 -10 16 -37 23 -61 7 -23 18 -47 26 -53 7 -6 13 -19 13 -28 0 -9 7 -25 15
-35 8 -11 15 -30 15 -41 0 -12 9 -30 20 -40 11 -10 20 -27 20 -37 0 -10 7 -21
15 -24 8 -4 15 -14 15 -24 0 -10 11 -27 25 -38 14 -11 25 -28 25 -39 0 -20
351 -373 371 -373 6 0 29 -18 51 -40 22 -22 45 -40 52 -40 6 0 35 -23 65 -50
29 -28 60 -50 68 -50 7 0 16 -6 19 -14 3 -8 21 -22 40 -31 19 -9 34 -20 34
-25 0 -6 6 -10 13 -10 7 0 18 -9 25 -20 7 -11 18 -20 26 -20 7 0 26 -11 42
-25 16 -14 34 -25 41 -25 7 0 26 -13 43 -30 17 -16 37 -30 45 -30 7 0 17 -5
20 -10 14 -22 152 -108 176 -109 8 -1 26 -12 39 -26 13 -14 29 -25 35 -25 6 0
22 -11 35 -25 13 -14 31 -25 41 -25 10 0 20 -4 24 -9 7 -12 64 -41 81 -41 7 0
21 -11 32 -25 11 -14 28 -25 37 -25 9 0 26 -11 37 -25 11 -14 28 -25 38 -25
10 0 22 -5 25 -10 3 -6 27 -19 52 -31 25 -11 55 -29 66 -40 12 -10 35 -19 51
-19 21 0 36 -7 44 -20 7 -12 23 -25 35 -30 12 -6 29 -14 37 -19 8 -5 31 -16
51 -25 19 -8 43 -24 54 -36 10 -11 26 -20 36 -20 10 0 20 -4 23 -9 5 -7 232
-122 286 -145 8 -3 29 -15 45 -25 17 -11 38 -20 48 -20 10 -1 20 -8 23 -16 4
-8 12 -15 19 -15 15 0 76 -30 92 -46 7 -6 34 -22 60 -34 26 -13 66 -40 88 -61
22 -21 69 -53 105 -72 36 -18 74 -39 85 -45 11 -6 79 -40 152 -76 117 -58 133
-64 147 -51 8 8 18 15 23 15 4 0 89 41 187 90 99 50 185 90 191 90 18 0 76 31
96 51 11 11 27 19 37 19 22 0 98 36 107 50 3 5 84 48 178 96 95 47 176 89 181
95 6 5 17 9 26 9 9 0 27 11 40 25 14 15 35 25 50 25 15 0 35 9 45 19 9 11 63
43 119 70 56 28 111 60 121 71 10 11 23 20 30 20 17 0 128 58 140 73 6 8 44
30 85 50 42 19 84 45 94 56 11 12 25 21 32 21 19 0 88 40 97 56 4 8 14 14 22
14 7 0 27 11 43 25 17 14 34 25 40 25 5 0 15 7 22 15 7 8 20 15 30 15 9 0 25
9 36 21 10 11 39 29 65 40 25 11 61 36 80 55 18 19 37 34 43 34 5 0 24 11 42
25 18 14 37 25 42 25 4 0 19 11 32 25 13 14 29 25 35 25 6 0 22 11 35 25 13
14 30 25 38 25 8 0 34 18 58 40 24 22 49 40 55 40 6 0 29 20 51 45 22 25 50
48 62 51 13 3 49 32 82 65 32 32 64 59 70 59 17 0 244 226 244 243 0 7 18 31
41 52 22 22 52 63 66 90 14 28 32 57 40 66 23 27 53 92 53 116 0 12 5 25 10
28 6 3 10 15 10 27 0 11 6 32 14 46 8 15 22 54 31 87 10 33 21 65 25 70 5 6
10 33 13 60 8 73 26 167 37 187 6 10 10 51 10 91 0 40 5 78 11 84 7 7 12 53
13 112 1 64 6 105 14 113 19 19 17 1130 -2 1161 -10 16 -14 61 -13 175 0 102
-4 157 -12 165 -7 7 -11 56 -11 137 0 87 -4 130 -12 138 -8 8 -16 59 -21 125
-4 62 -11 159 -15 217 -4 58 -13 115 -19 127 -7 12 -13 53 -13 92 0 38 -4 73
-10 76 -5 3 -10 16 -10 28 0 25 -26 67 -40 67 -5 0 -15 -10 -21 -22z"/>
</g>
</svg>
